<?xml version="1.0" encoding="utf-8"?>
<!-- Generator: Adobe Illustrator 23.0.3, SVG Export Plug-In . SVG Version: 6.00 Build 0)  -->
<svg version="1.1" xmlns="http://www.w3.org/2000/svg" xmlns:xlink="http://www.w3.org/1999/xlink" x="0px" y="0px"
	 viewBox="0 0 170 215" style="enable-background:new 0 0 170 215;" xml:space="preserve">
<style type="text/css">
	.st0{fill:#333333;}
	.st1{fill:#555555;stroke:#FFFFFF;stroke-width:0.25;stroke-miterlimit:10;}
	.st2{fill:#FAED4D;stroke:#FFFFFF;stroke-width:0.25;stroke-miterlimit:10;}
	.st3{fill:#333333;stroke:#FFFFFF;stroke-width:0.25;stroke-miterlimit:10;}
	.st4{fill:none;stroke:#231815;stroke-width:0.25;stroke-miterlimit:10;}
	.st5{fill:#FAED4D;}
	.st6{enable-background:new    ;}
	.st7{fill:#FFFFFF;}
	.st8{fill:none;}
	.st9{fill:none;stroke:#333333;}
	.st10{fill:none;stroke:#FFFFFF;stroke-width:0.25;stroke-miterlimit:10;}
	.st11{fill:#B28146;stroke:#333333;stroke-width:0.25;stroke-miterlimit:10;}
	.st12{clip-path:url(#SVGID_2_);}
	.st13{fill:#DFECF7;}
	.st14{fill:#35495D;}
	.st15{fill:#283A4C;}
	.st16{fill:#35495E;}
	.st17{fill:#283A4D;}
	.st18{fill:#4A5E71;}
	.st19{fill:#4A5D71;}
	.st20{fill:#4B5F71;}
	.st21{fill:#F4F7FB;}
	.st22{fill:#D5E5F2;}
	.st23{fill:#374B5F;}
	.st24{fill:#34495D;}
	.st25{fill:#4B6074;}
	.st26{fill:#647788;}
	.st27{fill:none;stroke:#FFFFFF;stroke-miterlimit:10;}
	.st28{clip-path:url(#SVGID_4_);}
	.st29{fill:#C5BF69;}
	.st30{fill:#E9E072;}
	.st31{fill:#9E9851;}
	.st32{fill:none;stroke:#FAED4D;}
</style>
<g id="圖層_1">
	<g>
		<path class="st0" d="M169,1v213H1V1H169 M170,0H0v215h170V0L170,0z"/>
	</g>
	<g>
		<rect x="0" class="st0" width="170" height="35"/>
	</g>
	<g class="st6">
		<path class="st7" d="M64.2,13.7c-0.7,1-1.6,1.9-2.5,2.5l-0.2-0.2c0.9-1,1.9-2.7,2.4-4.5l1.7,0.6c-0.1,0.2-0.3,0.3-0.6,0.3
			c-0.1,0.3-0.3,0.6-0.5,0.9h2.3l0.6-0.8c0,0,0.7,0.6,1.2,1c0,0.2-0.2,0.2-0.4,0.2H64.2z M73.8,20.1l1.2,1c-0.1,0.1-0.3,0.2-0.6,0.2
			c-0.1,1.6-0.5,2.7-1.1,3.1c-0.4,0.3-0.9,0.4-1.5,0.4c0-0.3,0-0.6-0.3-0.8s-0.7-0.3-1.2-0.4l0-0.2c0.5,0,1.4,0.1,1.7,0.1
			c0.2,0,0.4,0,0.5-0.1c0.3-0.2,0.5-1,0.6-2.2h-4.1v4.1c0,0.1-0.4,0.3-1,0.3h-0.2v-3.6c-1.5,1.4-3.6,2.6-6,3.3L61.7,25
			c2.2-0.9,4.1-2.3,5.3-3.9h-2.8l-0.5,0.6l-1.2-0.8c0.1-0.1,0.4-0.2,0.6-0.3c0.2-0.8,0.4-2,0.5-2.7l1.4,0.6h2.9v-1.8h-5l-0.1-0.4
			h9.6l0.6-0.6l1.3,0.9c-0.1,0.1-0.3,0.2-0.6,0.3v2.3c0,0.1-0.6,0.4-1,0.4h-0.2v-0.6h-3.4v1.8h4L73.8,20.1z M67.9,20.7v-1.8h-3.2
			c-0.1,0.6-0.3,1.2-0.4,1.8H67.9z M65,14c2.6,0.4,1.7,2.3,0.8,1.6c-0.1-0.5-0.5-1.1-0.9-1.5L65,14z M74.1,12.4c0,0,0.8,0.6,1.3,1.1
			c0,0.2-0.2,0.2-0.4,0.2h-4.9c-0.6,0.8-1.3,1.5-2,2l-0.2-0.2c0.7-0.9,1.5-2.4,1.9-4l1.6,0.6c-0.1,0.2-0.3,0.3-0.6,0.3
			c-0.1,0.3-0.3,0.5-0.5,0.8h2.9L74.1,12.4z M69.1,18.4h3.4v-1.8h-3.4V18.4z M70.9,14.1c2.7,0.3,1.9,2.2,0.9,1.6
			c-0.1-0.5-0.6-1.1-1-1.4L70.9,14.1z"/>
		<path class="st7" d="M88,22.9l0.9-1.2c0,0,1.1,0.8,1.7,1.4c0,0.2-0.2,0.2-0.4,0.2H77.2l-0.1-0.4H88z M86.6,14.5l0.9-1.2
			c0,0,1,0.8,1.7,1.4c0,0.2-0.2,0.2-0.4,0.2H78.6l-0.1-0.4H86.6z"/>
		<path class="st7" d="M104.7,16.1c0,0,0.9,0.7,1.5,1.2c0,0.2-0.2,0.2-0.4,0.2H92.5l-0.1-0.5h2.7v-4.2l1.6,0.2
			c0,0.2-0.1,0.3-0.5,0.4v3.7h2.4v-5.4l1.8,0.2c0,0.2-0.2,0.4-0.6,0.4v2h2.5l0.8-1c0,0,0.9,0.7,1.5,1.2c0,0.2-0.2,0.2-0.4,0.2h-4.4
			v2.4h4L104.7,16.1z M92.6,25.3c4.5-0.9,8-2.1,10.6-6.8l1.6,0.9c-0.1,0.2-0.3,0.2-0.7,0.1c-3,4.5-6.5,5.5-11.4,6L92.6,25.3z
			 M97.4,19.1c-0.1,0.1-0.2,0.2-0.6,0.2c-0.8,1.1-2.4,2.5-4,3.3l-0.1-0.2c1.3-1.1,2.6-2.8,3.2-4.1L97.4,19.1z M99.9,22.2
			c0,0.2-0.6,0.5-1,0.5h-0.1v-4.7l1.7,0.1c0,0.2-0.1,0.4-0.5,0.4V22.2z"/>
	</g>
	<g id="專刊圖表-04_2_" transform="translate(29.735 78.195)">
		<path id="Path_19_2_" class="st1" d="M4.3-8.6L15.1-5l21.4-5.2v-6.2L4.3-8.6z"/>
		<path id="Path_20_2_" class="st3" d="M15.1,63.8l-11-7.6L4.3-8.6L15.1-5V63.8z"/>
		<path id="Path_21_2_" class="st3" d="M37.7,53v-63.5L15.1-5v68.8L37.7,53z"/>
		<path id="Path_22_2_" class="st3" d="M62.1,53V-9.7l-24.4-0.8V53L62.1,53z"/>
		<path id="Path_23_2_" class="st3" d="M62.1,53l3.3,1.6V10.3l10.4-4.1V-6.1L62.1-9.7V53z"/>
		<path id="Path_24_2_" class="st1" d="M84.9,2.6l-19.6,7.7l14.3,5.1l5.2-2.5L84.9,2.6z"/>
		<path id="Path_25_2_" class="st3" d="M75.8-6.1V6.2l9.2-3.6L75.8-6.1z"/>
		<path id="Path_26_2_" class="st3" d="M65.4,99.9l14.5,10.5l-0.1-95l-14.3-5.1L65.4,99.9z"/>
		<path id="Path_27_2_" class="st3" d="M106.4,87l-26.6,23.3l-0.1-95l26.7-13.5L106.4,87z"/>
	</g>
</g>
<g id="圖層_2">
</g>
</svg>
