<?xml version="1.0" encoding="utf-8"?>
<!-- Generator: Adobe Illustrator 23.0.3, SVG Export Plug-In . SVG Version: 6.00 Build 0)  -->
<svg version="1.1" xmlns="http://www.w3.org/2000/svg" xmlns:xlink="http://www.w3.org/1999/xlink" x="0px" y="0px"
	 viewBox="0 0 170 215" style="enable-background:new 0 0 170 215;" xml:space="preserve">
<style type="text/css">
	.st0{fill:#333333;}
	.st1{fill:#555555;stroke:#FFFFFF;stroke-width:0.25;stroke-miterlimit:10;}
	.st2{fill:#FAED4D;stroke:#FFFFFF;stroke-width:0.25;stroke-miterlimit:10;}
	.st3{fill:#333333;stroke:#FFFFFF;stroke-width:0.25;stroke-miterlimit:10;}
	.st4{fill:none;stroke:#231815;stroke-width:0.25;stroke-miterlimit:10;}
	.st5{fill:#FAED4D;}
	.st6{enable-background:new    ;}
	.st7{fill:#FFFFFF;}
	.st8{fill:none;}
	.st9{fill:none;stroke:#333333;}
	.st10{fill:none;stroke:#FFFFFF;stroke-width:0.25;stroke-miterlimit:10;}
	.st11{fill:#B28146;stroke:#333333;stroke-width:0.25;stroke-miterlimit:10;}
	.st12{clip-path:url(#SVGID_2_);}
	.st13{fill:#DFECF7;}
	.st14{fill:#35495D;}
	.st15{fill:#283A4C;}
	.st16{fill:#35495E;}
	.st17{fill:#283A4D;}
	.st18{fill:#4A5E71;}
	.st19{fill:#4A5D71;}
	.st20{fill:#4B5F71;}
	.st21{fill:#F4F7FB;}
	.st22{fill:#D5E5F2;}
	.st23{fill:#374B5F;}
	.st24{fill:#34495D;}
	.st25{fill:#4B6074;}
	.st26{fill:#647788;}
	.st27{fill:none;stroke:#FFFFFF;stroke-miterlimit:10;}
	.st28{clip-path:url(#SVGID_4_);}
	.st29{fill:#C5BF69;}
	.st30{fill:#E9E072;}
	.st31{fill:#9E9851;}
	.st32{fill:none;stroke:#FAED4D;}
</style>
<g id="圖層_1">
	<g>
		<path class="st0" d="M169,1v213H1V1H169 M170,0H0v215h170V0L170,0z"/>
	</g>
	<g>
		<rect x="0" class="st0" width="170" height="35"/>
	</g>
	<g class="st6">
		<path class="st7" d="M64.2,13.7c-0.7,1-1.6,1.9-2.5,2.5l-0.2-0.2c0.9-1,1.9-2.7,2.4-4.5l1.7,0.6c-0.1,0.2-0.3,0.3-0.6,0.3
			c-0.1,0.3-0.3,0.6-0.5,0.9h2.3l0.6-0.8c0,0,0.7,0.6,1.2,1c0,0.2-0.2,0.2-0.4,0.2H64.2z M73.8,20.1l1.2,1c-0.1,0.1-0.3,0.2-0.6,0.2
			c-0.1,1.6-0.5,2.7-1.1,3.1c-0.4,0.3-0.9,0.4-1.5,0.4c0-0.3,0-0.6-0.3-0.8s-0.7-0.3-1.2-0.4l0-0.2c0.5,0,1.4,0.1,1.7,0.1
			c0.2,0,0.4,0,0.5-0.1c0.3-0.2,0.5-1,0.6-2.2h-4.1v4.1c0,0.1-0.4,0.3-1,0.3h-0.2v-3.6c-1.5,1.4-3.6,2.6-6,3.3L61.7,25
			c2.2-0.9,4.1-2.3,5.3-3.9h-2.8l-0.5,0.6l-1.2-0.8c0.1-0.1,0.4-0.2,0.6-0.3c0.2-0.8,0.4-2,0.5-2.7l1.4,0.6h2.9v-1.8h-5l-0.1-0.4
			h9.6l0.6-0.6l1.3,0.9c-0.1,0.1-0.3,0.2-0.6,0.3v2.3c0,0.1-0.6,0.4-1,0.4h-0.2v-0.6h-3.4v1.8h4L73.8,20.1z M67.9,20.7v-1.8h-3.2
			c-0.1,0.6-0.3,1.2-0.4,1.8H67.9z M65,14c2.6,0.4,1.7,2.3,0.8,1.6c-0.1-0.5-0.5-1.1-0.9-1.5L65,14z M74.1,12.4c0,0,0.8,0.6,1.3,1.1
			c0,0.2-0.2,0.2-0.4,0.2h-4.9c-0.6,0.8-1.3,1.5-2,2l-0.2-0.2c0.7-0.9,1.5-2.4,1.9-4l1.6,0.6c-0.1,0.2-0.3,0.3-0.6,0.3
			c-0.1,0.3-0.3,0.5-0.5,0.8h2.9L74.1,12.4z M69.1,18.4h3.4v-1.8h-3.4V18.4z M70.9,14.1c2.7,0.3,1.9,2.2,0.9,1.6
			c-0.1-0.5-0.6-1.1-1-1.4L70.9,14.1z"/>
		<path class="st7" d="M87.8,17.9l1-1.4c0,0,1.2,1,1.9,1.6c0,0.2-0.2,0.2-0.5,0.2H77.2L77,17.9H87.8z"/>
		<path class="st7" d="M104.7,16.1c0,0,0.9,0.7,1.5,1.2c0,0.2-0.2,0.2-0.4,0.2H92.5l-0.1-0.5h2.7v-4.2l1.6,0.2
			c0,0.2-0.1,0.3-0.5,0.4v3.7h2.4v-5.4l1.8,0.2c0,0.2-0.2,0.4-0.6,0.4v2h2.5l0.8-1c0,0,0.9,0.7,1.5,1.2c0,0.2-0.2,0.2-0.4,0.2h-4.4
			v2.4h4L104.7,16.1z M92.6,25.3c4.5-0.9,8-2.1,10.6-6.8l1.6,0.9c-0.1,0.2-0.3,0.2-0.7,0.1c-3,4.5-6.5,5.5-11.4,6L92.6,25.3z
			 M97.4,19.1c-0.1,0.1-0.2,0.2-0.6,0.2c-0.8,1.1-2.4,2.5-4,3.3l-0.1-0.2c1.3-1.1,2.6-2.8,3.2-4.1L97.4,19.1z M99.9,22.2
			c0,0.2-0.6,0.5-1,0.5h-0.1v-4.7l1.7,0.1c0,0.2-0.1,0.4-0.5,0.4V22.2z"/>
	</g>
	<g id="專刊圖表-03_2_" transform="translate(30.949 65.813)">
		<path id="Path_8_2_" class="st1" d="M104.8,109.7L96.6,75l-15.4-3.9l-3.3,27.5L104.8,109.7z"/>
		<path id="Path_9_2_" class="st1" d="M82.5,121.9l-4.6-23.3l27,11.1L82.5,121.9z"/>
		<path id="Path_10_2_" class="st2" d="M96.6,89.9L16,60.4v-32l80.5,14.5V89.9z"/>
		<path id="Path_11_2_" class="st2" d="M95.1,91.3L14.6,61.7v-32l80.5,14.5V91.3z"/>
		<path id="Path_12_2_" class="st2" d="M93.8,92.7L13.2,63.2v-32l80.5,14.5V92.7z"/>
		<path id="Path_13_2_" class="st2" d="M92.5,93.8L12,64.3v-32l80.5,14.5V93.8z"/>
		<path id="Path_14_2_" class="st3" d="M82.5,121.9l5-52.4L9.7,48.3L5.4,83.6L82.5,121.9z"/>
		<path id="Path_15_2_" class="st4" d="M48.4,64.8l-10-3c-0.7-0.4-1.1-1.2-1-2l0,0c0-0.9,0.5-1.6,1-1.4l10,2.9
			c0.8,0.4,1.2,1.3,1.1,2.1l0,0C49.6,64.3,49.1,65,48.4,64.8z"/>
		<path id="Path_16_2_" class="st4" d="M68,68.7l-11.8-3.5C56.1,65.2,56,65,56,64.9l0,0c0-0.2,0.1-0.3,0.2-0.3L68,68
			c0.2,0.1,0.3,0.2,0.2,0.4l0,0C68.2,68.6,68.1,68.8,68,68.7z"/>
		<path id="Path_17_2_" class="st4" d="M31.3,58.1l-11.8-3.5c-0.1-0.1-0.2-0.2-0.2-0.4l0,0c0-0.2,0.1-0.3,0.2-0.3l11.8,3.4
			c0.2,0.1,0.3,0.2,0.2,0.4l0,0C31.5,58,31.4,58.1,31.3,58.1z"/>
		<path id="Path_18_2_" class="st5" d="M52.1,12.2v18.7l8.4,1.4v-19l5.8,0.9L56.3-3.2l-9.5,14.5L52.1,12.2z"/>
	</g>
</g>
<g id="圖層_2">
</g>
</svg>
