<?xml version="1.0" encoding="utf-8"?>
<!-- Generator: Adobe Illustrator 23.0.3, SVG Export Plug-In . SVG Version: 6.00 Build 0)  -->
<svg version="1.1" xmlns="http://www.w3.org/2000/svg" xmlns:xlink="http://www.w3.org/1999/xlink" x="0px" y="0px"
	 viewBox="0 0 170 215" style="enable-background:new 0 0 170 215;" xml:space="preserve">
<style type="text/css">
	.st0{fill:#333333;}
	.st1{fill:#555555;stroke:#FFFFFF;stroke-width:0.25;stroke-miterlimit:10;}
	.st2{fill:#FAED4D;stroke:#FFFFFF;stroke-width:0.25;stroke-miterlimit:10;}
	.st3{fill:#333333;stroke:#FFFFFF;stroke-width:0.25;stroke-miterlimit:10;}
	.st4{fill:none;stroke:#231815;stroke-width:0.25;stroke-miterlimit:10;}
	.st5{fill:#FAED4D;}
	.st6{enable-background:new    ;}
	.st7{fill:#FFFFFF;}
	.st8{fill:none;}
	.st9{fill:none;stroke:#333333;}
	.st10{fill:none;stroke:#FFFFFF;stroke-width:0.25;stroke-miterlimit:10;}
	.st11{fill:#B28146;stroke:#333333;stroke-width:0.25;stroke-miterlimit:10;}
	.st12{clip-path:url(#SVGID_2_);}
	.st13{fill:#DFECF7;}
	.st14{fill:#35495D;}
	.st15{fill:#283A4C;}
	.st16{fill:#35495E;}
	.st17{fill:#283A4D;}
	.st18{fill:#4A5E71;}
	.st19{fill:#4A5D71;}
	.st20{fill:#4B5F71;}
	.st21{fill:#F4F7FB;}
	.st22{fill:#D5E5F2;}
	.st23{fill:#374B5F;}
	.st24{fill:#34495D;}
	.st25{fill:#4B6074;}
	.st26{fill:#647788;}
	.st27{fill:none;stroke:#FFFFFF;stroke-miterlimit:10;}
	.st28{clip-path:url(#SVGID_4_);}
	.st29{fill:#C5BF69;}
	.st30{fill:#E9E072;}
	.st31{fill:#9E9851;}
	.st32{fill:none;stroke:#FAED4D;}
</style>
<g id="圖層_1">
	<g>
		<path class="st0" d="M169,1v213H1V1H169 M170,0H0v215h170V0L170,0z"/>
	</g>
	<g>
		<rect x="0" class="st0" width="170" height="35"/>
	</g>
	<g class="st6">
		<path class="st7" d="M64.2,13.7c-0.7,1-1.6,1.9-2.5,2.5l-0.2-0.2c0.9-1,1.9-2.7,2.4-4.5l1.7,0.6c-0.1,0.2-0.3,0.3-0.6,0.3
			c-0.1,0.3-0.3,0.6-0.5,0.9h2.3l0.6-0.8c0,0,0.7,0.6,1.2,1c0,0.2-0.2,0.2-0.4,0.2H64.2z M73.8,20.1l1.2,1c-0.1,0.1-0.3,0.2-0.6,0.2
			c-0.1,1.6-0.5,2.7-1.1,3.1c-0.4,0.3-0.9,0.4-1.5,0.4c0-0.3,0-0.6-0.3-0.8s-0.7-0.3-1.2-0.4l0-0.2c0.5,0,1.4,0.1,1.7,0.1
			c0.2,0,0.4,0,0.5-0.1c0.3-0.2,0.5-1,0.6-2.2h-4.1v4.1c0,0.1-0.4,0.3-1,0.3h-0.2v-3.6c-1.5,1.4-3.6,2.6-6,3.3L61.7,25
			c2.2-0.9,4.1-2.3,5.3-3.9h-2.8l-0.5,0.6l-1.2-0.8c0.1-0.1,0.4-0.2,0.6-0.3c0.2-0.8,0.4-2,0.5-2.7l1.4,0.6h2.9v-1.8h-5l-0.1-0.4
			h9.6l0.6-0.6l1.3,0.9c-0.1,0.1-0.3,0.2-0.6,0.3v2.3c0,0.1-0.6,0.4-1,0.4h-0.2v-0.6h-3.4v1.8h4L73.8,20.1z M67.9,20.7v-1.8h-3.2
			c-0.1,0.6-0.3,1.2-0.4,1.8H67.9z M65,14c2.6,0.4,1.7,2.3,0.8,1.6c-0.1-0.5-0.5-1.1-0.9-1.5L65,14z M74.1,12.4c0,0,0.8,0.6,1.3,1.1
			c0,0.2-0.2,0.2-0.4,0.2h-4.9c-0.6,0.8-1.3,1.5-2,2l-0.2-0.2c0.7-0.9,1.5-2.4,1.9-4l1.6,0.6c-0.1,0.2-0.3,0.3-0.6,0.3
			c-0.1,0.3-0.3,0.5-0.5,0.8h2.9L74.1,12.4z M69.1,18.4h3.4v-1.8h-3.4V18.4z M70.9,14.1c2.7,0.3,1.9,2.2,0.9,1.6
			c-0.1-0.5-0.6-1.1-1-1.4L70.9,14.1z"/>
		<path class="st7" d="M90.4,13.4c-0.1,0.1-0.3,0.3-0.7,0.3v11c0,0.1-0.6,0.4-1,0.4h-0.2v-1.7H79V25c0,0.1-0.5,0.5-1,0.5h-0.2V12.5
			l1.3,0.6h9.3l0.6-0.7L90.4,13.4z M88.6,23v-2.6c-0.3,0.1-0.8,0.1-1.6,0.1h-1c-1,0-1.2-0.3-1.2-1v-5.9h-1.9c-0.1,3.6-0.2,6.2-3.3,8
			l-0.2-0.3c2.3-1.9,2.3-4.4,2.3-7.7H79V23H88.6z M85.9,13.5L85.9,13.5v5.6c0,0.2,0,0.3,0.4,0.3h0.9c0.4,0,0.7,0,0.8,0
			c0.1,0,0.2,0,0.3,0c0.1,0,0.2,0,0.3-0.1h0v-5.8H85.9z"/>
		<path class="st7" d="M104.7,16.1c0,0,0.9,0.7,1.5,1.2c0,0.2-0.2,0.2-0.4,0.2H92.5l-0.1-0.5h2.7v-4.2l1.6,0.2
			c0,0.2-0.1,0.3-0.5,0.4v3.7h2.4v-5.4l1.8,0.2c0,0.2-0.2,0.4-0.6,0.4v2h2.5l0.8-1c0,0,0.9,0.7,1.5,1.2c0,0.2-0.2,0.2-0.4,0.2h-4.4
			v2.4h4L104.7,16.1z M92.6,25.3c4.5-0.9,8-2.1,10.6-6.8l1.6,0.9c-0.1,0.2-0.3,0.2-0.7,0.1c-3,4.5-6.5,5.5-11.4,6L92.6,25.3z
			 M97.4,19.1c-0.1,0.1-0.2,0.2-0.6,0.2c-0.8,1.1-2.4,2.5-4,3.3l-0.1-0.2c1.3-1.1,2.6-2.8,3.2-4.1L97.4,19.1z M99.9,22.2
			c0,0.2-0.6,0.5-1,0.5h-0.1v-4.7l1.7,0.1c0,0.2-0.1,0.4-0.5,0.4V22.2z"/>
	</g>
	<g id="專刊圖表-06_2_" transform="translate(31.076 65.813)">
		<path id="Path_40_2_" class="st3" d="M49.8,11.9v15.3l0,0c2.4,1,4.7,2.2,6.8,3.6c-3-0.9-5.5-0.4-6.8,1v19.7c3.2,2,5.6,5.8,5.6,8.9
			v15.1l-5.6-3.3v20.1l25.8,17.2V64.9l0.9,0.5v44.7l13.4,8.9V72l1,0.5v47.1l4,2.6V26.7L49.8,11.9z M54,50.7V38.7
			c0-2.9,2.4-4.3,5.4-3c0.2,0.1,0.4,0.2,0.6,0.3c6.3,4.6,10.8,11,10.8,16.2v12c0-3-3-6.8-6.6-8.5c-2.9-1.4-5.3-1-6,0.7
			C57.5,54,56,52,54,50.7L54,50.7z M71.3,84.7L58,76.9V63.2c0-3.1,2.9-4.2,6.5-2.4c3.7,1.9,6.8,6.1,6.8,9.4L71.3,84.7z"/>
		<path id="Path_41_2_" class="st3" d="M17.6,71l0.6,0.4l8.1,5.4l0.6,0.4L47.7,91V71.1L42.4,68V53.8c0-2.9,2.3-4.2,5.3-3.2V31
			c-1.4-2.7-3.7-4.8-6.4-6.2c2.2,0.3,4.3,0.9,6.4,1.6V11.3L15.5,0.8v68.8L17.6,71 M40.2,66.7l-10.4-6V48.6c0-2.8,2.2-3.9,5.1-2.5
			c2.9,1.5,5.3,5,5.3,7.9L40.2,66.7z M40.1,47.4c-0.9-2.5-2.7-4.5-5-5.7c-2.8-1.3-5-0.4-5,2.1V33.7c0-4.4,3.4-6.7,8.4-6.5
			c0.2,0.1,0.3,0.1,0.5,0.2c2.7,1.3,4.5,3.9,4.6,6.9v11.6c-1.2-0.6-2.7-0.1-3.3,1.1C40.2,47.1,40.1,47.2,40.1,47.4L40.1,47.4z"/>
		<line id="Line_18_2_" class="st4" x1="13.4" y1="7.6" x2="2.2" y2="3.8"/>
		<line id="Line_19_2_" class="st4" x1="13.4" y1="7.6" x2="13.4" y2="16.8"/>
		<line id="Line_20_2_" class="st4" x1="2.2" y1="3.8" x2="2.2" y2="11.9"/>
		<line id="Line_21_2_" class="st4" x1="2.2" y1="3.8" x2="14" y2="1"/>
		<line id="Line_22_2_" class="st4" x1="14" y1="1" x2="14" y2="7.4"/>
		<line id="Line_23_2_" class="st4" x1="73.3" y1="20.6" x2="73.3" y2="25.2"/>
		<line id="Line_24_2_" class="st4" x1="76.7" y1="24.1" x2="73.3" y2="25.2"/>
		<path id="Path_42_2_" class="st3" d="M65.9,40.8v76.1L81,127.8l-0.1-80.5"/>
		<line id="Line_25_2_" class="st4" x1="65.9" y1="23.5" x2="73.3" y2="20.6"/>
		<path id="Path_43_2_" class="st7" d="M18.6,3.9L16,4.6l-0.2-0.3V1.1L15.2,1L15,6.2l0.2,0.7l0.5-0.1l2.8-0.7V3.9z"/>
		<line id="Line_26_2_" class="st10" x1="76.7" y1="24.1" x2="76.7" y2="27.4"/>
		<line id="Line_27_2_" class="st4" x1="2.2" y1="11.9" x2="13.4" y2="16.8"/>
		<path id="Path_44_2_" class="st3" d="M13.4,16.8l3.3-0.9v1.8l-3.3,1.1v60.6l9.1-4.7l0,0V9.6l-2,0.5V5.8l-7.2,1.8"/>
		<line id="Line_28_2_" class="st10" x1="80.8" y1="44.8" x2="83" y2="43.8"/>
		<line id="Line_29_2_" class="st10" x1="81" y1="47.4" x2="82.8" y2="46.5"/>
		<line id="Line_30_2_" class="st10" x1="83" y1="43.8" x2="83" y2="46.5"/>
		<line id="Line_31_2_" class="st10" x1="2.1" y1="13.6" x2="4.2" y2="12.8"/>
		<path id="Path_45_2_" class="st1" d="M18.7-0.1l17.4-4.2V2l-9.6,2.3l-7.8-2.6L18.7-0.1z"/>
		<path id="Path_46_2_" class="st3" d="M90.8,119.2l-9.9,8.6l-0.1-80.5l2.1-0.9v-2.7l-2.1,1l0-16l6.5-3.3v3.8l3.7-1.6L90.8,119.2"/>
		<path id="Path_47_2_" class="st3" d="M80.8,44.8l-14.9-6.3L80.8,44.8l0-16l-14.9-5.3v15"/>
		<path id="Path_48_2_" class="st3" d="M2.2,13.6L2,71.4l11.5,7.9V18.7L2,13.5"/>
		<path id="Path_49_2_" class="st3" d="M37.3,1.8L26.5,4.3l10.8,3.7V1.8z"/>
		<path id="Path_50_2_" class="st3" d="M62.7,16.1L37.3,7.9V1.8l25.5,0.9v13.6"/>
		<path id="Path_51_2_" class="st3" d="M62.7,2.6L77,6.4v14.4l-14.2-4.7V2.6z"/>
		<path id="Path_52_2_" class="st3" d="M86.5,23.9L77,20.8V6.4l9.6,9.1v8.2"/>
		<path id="Path_53_2_" class="st3" d="M91.8,25.7v-2.4l16.8-8.6v88.8l-13.8,12.1V26.7L91.8,25.7z"/>
		<path id="Path_54_2_" class="st2" d="M73.3,49.3l-77.9-37V2.5l77.9,33.7V49.3z"/>
		<path id="Path_55_2_" class="st2" d="M11.2-0.9l83.7,27.5l-21.6,9.6L-4.5,2.5L11.2-0.9z"/>
		<path id="Path_56_2_" class="st2" d="M91.2,28.7v4.8l3.4,1.3v-7.7l-3.8,1.7H91.2z"/>
		<path id="Path_57_2_" class="st2" d="M80.7,46.1l-7.2,3v-6.1L80.7,46.1z"/>
		<path id="Path_58_2_" class="st5" d="M71.8,47.7l-9.3-6.3l0,5.6L41,53.4L42.8,66l19.9-10.2l0,5.5L71.8,47.7z"/>
		<path id="Path_59_2_" class="st5" d="M81.8,13.6l7.9,8.3l9.2-15.2l-4.6,1.9l0.1-17.7l-8.1,4.3L86,11.9L81.8,13.6z"/>
		<line id="Line_32_2_" class="st10" x1="80.8" y1="47.3" x2="79.1" y2="46.7"/>
	</g>
</g>
<g id="圖層_2">
</g>
</svg>
