<?xml version="1.0" encoding="utf-8"?>
<!-- Generator: Adobe Illustrator 23.0.3, SVG Export Plug-In . SVG Version: 6.00 Build 0)  -->
<svg version="1.1" xmlns="http://www.w3.org/2000/svg" xmlns:xlink="http://www.w3.org/1999/xlink" x="0px" y="0px"
	 viewBox="0 0 170 215" style="enable-background:new 0 0 170 215;" xml:space="preserve">
<style type="text/css">
	.st0{fill:#333333;}
	.st1{fill:#555555;stroke:#FFFFFF;stroke-width:0.25;stroke-miterlimit:10;}
	.st2{fill:#FAED4D;stroke:#FFFFFF;stroke-width:0.25;stroke-miterlimit:10;}
	.st3{fill:#333333;stroke:#FFFFFF;stroke-width:0.25;stroke-miterlimit:10;}
	.st4{fill:none;stroke:#231815;stroke-width:0.25;stroke-miterlimit:10;}
	.st5{fill:#FAED4D;}
	.st6{enable-background:new    ;}
	.st7{fill:#FFFFFF;}
	.st8{fill:none;}
	.st9{fill:none;stroke:#333333;}
	.st10{fill:none;stroke:#FFFFFF;stroke-width:0.25;stroke-miterlimit:10;}
	.st11{fill:#B28146;stroke:#333333;stroke-width:0.25;stroke-miterlimit:10;}
	.st12{clip-path:url(#SVGID_2_);}
	.st13{fill:#DFECF7;}
	.st14{fill:#35495D;}
	.st15{fill:#283A4C;}
	.st16{fill:#35495E;}
	.st17{fill:#283A4D;}
	.st18{fill:#4A5E71;}
	.st19{fill:#4A5D71;}
	.st20{fill:#4B5F71;}
	.st21{fill:#F4F7FB;}
	.st22{fill:#D5E5F2;}
	.st23{fill:#374B5F;}
	.st24{fill:#34495D;}
	.st25{fill:#4B6074;}
	.st26{fill:#647788;}
	.st27{fill:none;stroke:#FFFFFF;stroke-miterlimit:10;}
	.st28{clip-path:url(#SVGID_4_);}
	.st29{fill:#C5BF69;}
	.st30{fill:#E9E072;}
	.st31{fill:#9E9851;}
	.st32{fill:none;stroke:#FAED4D;}
</style>
<g id="圖層_1">
	<g>
		<path class="st0" d="M169,1v213H1V1H169 M170,0H0v215h170V0L170,0z"/>
	</g>
	<g>
		<rect x="0" class="st0" width="170" height="35"/>
	</g>
	<g class="st6">
		<path class="st7" d="M64.2,13.7c-0.7,1-1.6,1.9-2.5,2.5l-0.2-0.2c0.9-1,1.9-2.7,2.4-4.5l1.7,0.6c-0.1,0.2-0.3,0.3-0.6,0.3
			c-0.1,0.3-0.3,0.6-0.5,0.9h2.3l0.6-0.8c0,0,0.7,0.6,1.2,1c0,0.2-0.2,0.2-0.4,0.2H64.2z M73.8,20.1l1.2,1c-0.1,0.1-0.3,0.2-0.6,0.2
			c-0.1,1.6-0.5,2.7-1.1,3.1c-0.4,0.3-0.9,0.4-1.5,0.4c0-0.3,0-0.6-0.3-0.8s-0.7-0.3-1.2-0.4l0-0.2c0.5,0,1.4,0.1,1.7,0.1
			c0.2,0,0.4,0,0.5-0.1c0.3-0.2,0.5-1,0.6-2.2h-4.1v4.1c0,0.1-0.4,0.3-1,0.3h-0.2v-3.6c-1.5,1.4-3.6,2.6-6,3.3L61.7,25
			c2.2-0.9,4.1-2.3,5.3-3.9h-2.8l-0.5,0.6l-1.2-0.8c0.1-0.1,0.4-0.2,0.6-0.3c0.2-0.8,0.4-2,0.5-2.7l1.4,0.6h2.9v-1.8h-5l-0.1-0.4
			h9.6l0.6-0.6l1.3,0.9c-0.1,0.1-0.3,0.2-0.6,0.3v2.3c0,0.1-0.6,0.4-1,0.4h-0.2v-0.6h-3.4v1.8h4L73.8,20.1z M67.9,20.7v-1.8h-3.2
			c-0.1,0.6-0.3,1.2-0.4,1.8H67.9z M65,14c2.6,0.4,1.7,2.3,0.8,1.6c-0.1-0.5-0.5-1.1-0.9-1.5L65,14z M74.1,12.4c0,0,0.8,0.6,1.3,1.1
			c0,0.2-0.2,0.2-0.4,0.2h-4.9c-0.6,0.8-1.3,1.5-2,2l-0.2-0.2c0.7-0.9,1.5-2.4,1.9-4l1.6,0.6c-0.1,0.2-0.3,0.3-0.6,0.3
			c-0.1,0.3-0.3,0.5-0.5,0.8h2.9L74.1,12.4z M69.1,18.4h3.4v-1.8h-3.4V18.4z M70.9,14.1c2.7,0.3,1.9,2.2,0.9,1.6
			c-0.1-0.5-0.6-1.1-1-1.4L70.9,14.1z"/>
		<path class="st7" d="M83.2,18.2c-0.1,0.2-0.2,0.2-0.6,0.2c-1.1,2.4-3.1,5.2-5.4,6.8L77,25c1.7-1.8,3.4-4.9,4.2-7.5L83.2,18.2z
			 M88.1,15.6l0.9-1.2c0,0,1,0.8,1.7,1.4c0,0.2-0.2,0.2-0.4,0.2h-13l-0.1-0.4H88.1z M83.8,15c-0.2-1.1-1.2-2.4-2.1-3.1l0.1-0.1
			C86.4,12.9,85.3,16.1,83.8,15z M89.4,24.7c-0.5-2.1-2.5-5.1-4-6.9l0.2-0.1C91.7,22.1,91,26,89.4,24.7z"/>
		<path class="st7" d="M104.7,16.1c0,0,0.9,0.7,1.5,1.2c0,0.2-0.2,0.2-0.4,0.2H92.5l-0.1-0.5h2.7v-4.2l1.6,0.2
			c0,0.2-0.1,0.3-0.5,0.4v3.7h2.4v-5.4l1.8,0.2c0,0.2-0.2,0.4-0.6,0.4v2h2.5l0.8-1c0,0,0.9,0.7,1.5,1.2c0,0.2-0.2,0.2-0.4,0.2h-4.4
			v2.4h4L104.7,16.1z M92.6,25.3c4.5-0.9,8-2.1,10.6-6.8l1.6,0.9c-0.1,0.2-0.3,0.2-0.7,0.1c-3,4.5-6.5,5.5-11.4,6L92.6,25.3z
			 M97.4,19.1c-0.1,0.1-0.2,0.2-0.6,0.2c-0.8,1.1-2.4,2.5-4,3.3l-0.1-0.2c1.3-1.1,2.6-2.8,3.2-4.1L97.4,19.1z M99.9,22.2
			c0,0.2-0.6,0.5-1,0.5h-0.1v-4.7l1.7,0.1c0,0.2-0.1,0.4-0.5,0.4V22.2z"/>
	</g>
	<g id="專刊圖表-08_2_" transform="translate(5.491 70.433)">
		<g transform="translate(0 0)">
			<path id="Path_86_2_" class="st3" d="M74.7,5.3v14.4l0,0c2.2,1,4.4,2.1,6.4,3.4c-2.8-0.8-5.2-0.4-6.4,0.9v18.5
				c3,1.9,5.3,5.5,5.3,8.4v14.2l-5.3-3.1V81L99,97.1V55.2l0.9,0.4v42.1l12.6,8.4V61.9l1,0.5v44.3l3.7,2.5v-90L74.7,5.3z M78.7,41.9
				V30.5c0-2.7,2.2-4,5.1-2.8c0.2,0.1,0.4,0.2,0.5,0.2c5.9,4.4,10.2,10.4,10.2,15.3v11.3c0-2.8-2.8-6.4-6.2-8
				c-2.7-1.3-4.9-1-5.7,0.6C82,44.9,80.6,43,78.7,41.9L78.7,41.9z M94.9,73.8l-12.6-7.3V53.6c0-2.9,2.7-4,6.1-2.3
				c3.5,1.8,6.4,5.7,6.4,8.8L94.9,73.8z"/>
			<path id="Path_87_2_" class="st3" d="M44.4,60.9l0.5,0.4l7.6,5l0.6,0.4l19.6,13V61l-5-2.9V44.7c0-2.8,2.1-4,5-3V23.3
				c-1.4-2.5-3.4-4.5-6-5.8c2,0.3,4,0.8,6,1.5V4.8L42.4-5.2v64.8L44.4,60.9 M65.6,56.9l-9.8-5.7V39.8c0-2.6,2.1-3.7,4.8-2.3
				c2.7,1.4,5,4.7,5,7.5L65.6,56.9z M65.6,38.7c-0.8-2.3-2.5-4.3-4.7-5.4c-2.6-1.3-4.7-0.4-4.7,2v-9.5c0-4.1,3.2-6.3,7.9-6.1
				c0.1,0,0.3,0.1,0.4,0.2c2.5,1.2,4.2,3.7,4.4,6.5v10.9c-1.2-0.6-2.6-0.1-3.2,1C65.7,38.4,65.6,38.6,65.6,38.7L65.6,38.7z"/>
			<line id="Line_48_2_" class="st4" x1="40.5" y1="1.3" x2="29.9" y2="-2.3"/>
			<line id="Line_49_2_" class="st4" x1="40.5" y1="1.3" x2="40.5" y2="9.9"/>
			<line id="Line_50_2_" class="st4" x1="29.9" y1="-2.3" x2="29.9" y2="5.3"/>
			<line id="Line_51_2_" class="st4" x1="29.9" y1="-2.3" x2="41" y2="-5"/>
			<line id="Line_52_2_" class="st4" x1="41" y1="-5" x2="41" y2="1.1"/>
			<line id="Line_53_2_" class="st4" x1="96.8" y1="13.5" x2="96.8" y2="17.9"/>
			<line id="Line_54_2_" class="st4" x1="100" y1="16.8" x2="96.8" y2="17.9"/>
			<path id="Path_88_2_" class="st3" d="M89.8,32.5v71.6l14.2,10.3l-0.1-75.7"/>
			<line id="Line_55_2_" class="st4" x1="89.8" y1="16.3" x2="96.8" y2="13.5"/>
			<path id="Path_89_2_" class="st7" d="M45.3-2.2l-2.5,0.7l-0.2-0.3v-3L42.1-5l-0.2,4.9l0.2,0.7l0.5-0.1l2.7-0.6L45.3-2.2z"/>
			<line id="Line_56_2_" class="st10" x1="100" y1="16.8" x2="100" y2="19.9"/>
			<line id="Line_57_2_" class="st4" x1="29.9" y1="5.3" x2="40.5" y2="9.9"/>
			<path id="Path_90_2_" class="st3" d="M40.5,9.9L43.6,9v1.7l-3.1,1v57l8.6-4.4l0,0V3.1l-1.8,0.5v-4.1l-6.8,1.7"/>
			<line id="Line_58_2_" class="st10" x1="103.9" y1="36.3" x2="105.9" y2="35.3"/>
			<line id="Line_59_2_" class="st10" x1="104" y1="38.7" x2="105.8" y2="37.9"/>
			<line id="Line_60_2_" class="st10" x1="105.9" y1="35.3" x2="105.9" y2="37.9"/>
			<line id="Line_61_2_" class="st10" x1="29.8" y1="6.9" x2="31.8" y2="6.2"/>
			<path id="Path_91_2_" class="st1" d="M45.4-6l16.4-4v6l-9,2.2l-7.3-2.5V-6z"/>
			<path id="Path_92_2_" class="st3" d="M113.3,106.3l-9.3,8.1l-0.1-75.7l2-0.8v-2.6l-2,1l0-15.1l6.1-3.1v3.8l3.5-1.5L113.3,106.3"
				/>
			<path id="Path_93_2_" class="st1" d="M103.9,36.3l-14.1-5.9L103.9,36.3V21.2l-14.1-5v14.1"/>
			<path id="Path_94_2_" class="st3" d="M29.9,7l-0.2,54.4l10.8,7.5v-57L29.6,6.9"/>
			<path id="Path_95_2_" class="st1" d="M62.9-4.2L52.8-1.9l10.1,3.4L62.9-4.2z"/>
			<path id="Path_96_2_" class="st1" d="M86.9,9.2l-24-7.7v-5.8l24,0.8V9.4"/>
			<path id="Path_97_2_" class="st1" d="M86.9-3.4l13.4,3.6v13.5L86.9,9.2V-3.4z"/>
			<path id="Path_98_2_" class="st1" d="M109.3,16.7l-9-2.9V0.2l9,8.6v7.7"/>
			<path id="Path_99_2_" class="st3" d="M114.3,18.3v-2.2l15.8-3.8v79.3l-12.9,11.4V19.2L114.3,18.3z"/>
			<line id="Line_62_2_" class="st10" x1="40.5" y1="52.6" x2="29.7" y2="45.3"/>
			<line id="Line_63_2_" class="st10" x1="103.8" y1="95.4" x2="89.8" y2="86"/>
			<line id="Line_64_2_" class="st10" x1="40.5" y1="54" x2="29.7" y2="46.6"/>
			<line id="Line_65_2_" class="st10" x1="104" y1="97.3" x2="89.8" y2="87.5"/>
			<line id="Line_66_2_" class="st10" x1="40.5" y1="57.7" x2="29.7" y2="49.9"/>
			<line id="Line_67_2_" class="st10" x1="103.9" y1="102.7" x2="89.8" y2="92.5"/>
			<line id="Line_68_2_" class="st10" x1="40.5" y1="58.9" x2="29.7" y2="51.2"/>
			<line id="Line_69_2_" class="st10" x1="104" y1="104.3" x2="89.8" y2="94.1"/>
			<path id="Path_100_2_" class="st3" d="M96.8,40.5L23.5,5.7v-9.2l73.3,31.7V40.5z"/>
			<path id="Path_101_2_" class="st3" d="M38.4-6.7l78.8,25.9l-20.3,9L23.5-3.5L38.4-6.7z"/>
			<path id="Path_102_2_" class="st1" d="M113.7,20.7v4.9l3.2,1.2v-7.3L113.7,20.7z"/>
			<path id="Path_103_2_" class="st1" d="M103.8,37.5L97,40.3v-5.8L103.8,37.5z"/>
			<path id="Path_104_2_" class="st1" d="M130.1,26.5l3.2,0.8V12.4l-3.2,1.3V26.5z"/>
			<path id="Path_105_2_" class="st1" d="M126.3,28.5l3,0.9l4-2.1l-3.2-0.8L126.3,28.5z"/>
			<path id="Path_106_2_" class="st3" d="M64.6-8.7l0.2,0.1l0,0L64.6-8.7z"/>
			<path id="Path_107_2_" class="st3" d="M126.9,10.3l4.9-2.2L64.5-11L61-10.3L58.5-11L38.4-6.7l78.2,26.1l16.7-7.1L126.9,10.3z"/>
			<path id="Path_108_2_" class="st2" d="M8.2,61.3l71.4,49l-3.5,2.7l-71-50.6L8.2,61.3z"/>
			<path id="Path_109_2_" class="st2" d="M8.9,65.9l70.7,51.9l-3.5,2.7l-71-53L8.9,65.9z"/>
			<path id="Path_110_2_" class="st2" d="M76.1,120.5l-71-53v-5l71,50.6L76.1,120.5z"/>
			<path id="Path_111_2_" class="st5" d="M93,104.7l-3-2.7v2.1l-7,4.4v5.3l7.1-5.1l0,2.7L93,104.7z"/>
			<path id="Path_112_2_" class="st5" d="M26.4,56.7l-3-3.2v2.1l-7,2.8v5.2l7.1-3.5l0,2.7L26.4,56.7z"/>
			
				<image style="overflow:visible;opacity:0.15;enable-background:new    ;" width="258" height="236" id="Rectangle_125_2_" xlink:href="AC8A48D9.png"  transform="matrix(0.3548 0 0 0.3548 71.2267 9.3115)">
			</image>
			<ellipse id="Ellipse_3_2_" class="st0" cx="114.2" cy="48.7" rx="31" ry="31"/>
			<g>
				<defs>
					<circle id="SVGID_3_" cx="114.2" cy="48.7" r="31"/>
				</defs>
				<clipPath id="SVGID_2_">
					<use xlink:href="#SVGID_3_"  style="overflow:visible;"/>
				</clipPath>
				<g id="Group_15_2_" transform="translate(68.621 25.225)" class="st12">
					<path id="Path_113_2_" class="st5" d="M54,10.2l-6.3-4.2v2h-8.2v4.3h8.2v2L54,10.2z"/>
					<path id="Path_114_2_" class="st5" d="M54,37.9l-6.3-4.2v2h-8.2v4.3h8.2v2L54,37.9z"/>
					<path id="Path_115_2_" class="st13" d="M42.7,19.2c0-0.2,0.1-0.3,0.3-0.3c1.3-0.1,2.5-0.1,3.8,0.1c0.5,0,0.9,0.5,0.9,1
						c0,0.1,0,0.1,0,0.2c-0.1,0.6-0.5,0.7-1.1,0.7H44c-1.3,0-1.3,0-1.3-1.3c0.5-0.4,1-0.2,1.6-0.2c0.8,0,1.5,0,2.3,0h-3.1
						C43.2,19.4,42.9,19.5,42.7,19.2z"/>
					<path id="Path_116_2_" class="st14" d="M69.4,25.6c0,0-0.1,0.1-0.1,0.1c-1.5-0.3-1.8,0.6-2.1,1.8c-0.7,2.3-2.7,3.9-5.1,3.9
						c-2.9,0.1-5.8,0-8.7,0c-0.3-0.3-0.3-0.7-0.3-1V18.2c0-0.4-0.1-0.7,0.3-1c2.6,0,5.2,0.1,7.8,0c2.2-0.2,4.4,0.9,5.6,2.8
						c0.5,0.4,0.8,1,0.9,1.7c0,0.5,0.4,1,0.9,1c0,0,0.1,0,0.1,0c0.3,0,0.7,0,0.7,0.5c-0.2,0.1-0.4,0.2-0.6,0.2c-0.8,0-1,0.4-1,1.1
						c0,0.6,0.2,1,0.9,1C69,25.3,69.3,25.4,69.4,25.6L69.4,25.6z"/>
					<path id="Path_117_2_" class="st14" d="M38.4,31.4h-8.2c-3,0.2-5.7-2-6-5.1c-0.1-0.5-0.2-0.7-0.7-0.6c-0.4,0-0.8,0.2-1.2-0.1
						c0.2-0.2,0.4-0.3,0.7-0.3c0.8,0,0.9-0.4,0.9-1.1c0-0.6-0.2-1-0.9-1c-0.3,0-0.5-0.1-0.7-0.3c0.1,0,0.1-0.1,0.1-0.1
						c1.4,0.3,1.8-0.4,2.1-1.7c0.6-2.3,2.7-3.9,5.1-4c2.9-0.1,5.9,0,8.8,0c0.3,0.3,0.3,0.7,0.3,1v12.2
						C38.6,30.8,38.7,31.2,38.4,31.4z"/>
					<path id="Path_118_2_" class="st15" d="M40.6,29.6c0,0.7,0,1.4,0,2.1c0.1,0.5-0.3,1-0.8,1.1c-0.5,0.2-1-0.1-1.2-0.6
						c0,0,0,0,0-0.1c-0.1-0.2-0.1-0.4-0.1-0.6V17.1c0-0.2,0-0.4,0.1-0.6c0.6-1,1.3-1,2,0c0.3,0.8,0.4,1.7,0.3,2.6
						c-0.1,0.7,0.2,1.4-0.3,2v6.5C40.9,28.2,41,29,40.6,29.6z"/>
					<path id="Path_119_2_" class="st15" d="M53.2,32.2C53,32.7,52.5,33,52,32.9c-0.1,0-0.1,0-0.1,0c-0.6-0.2-0.7-0.7-0.7-1.3
						c0-4.6,0-9.3,0-13.9c0-0.3,0-0.7,0-1c0.1-0.5,0.5-0.9,1-0.9c0.5-0.1,1,0.2,1.1,0.7c0,0.1,0.1,0.2,0.1,0.3v15.2
						C53.2,32,53.2,32.1,53.2,32.2z"/>
					<path id="Path_120_2_" class="st16" d="M11.7,25.2h-0.3c-0.8-0.9-0.7-1.5,0.3-1.9c1.8-0.2,3.5,0,5.3-0.1c1.5,0,3,0,4.5,0
						c0.7,0,0.8,0.4,0.8,1c0,0.5,0.1,1.1-0.7,1C18.3,25.3,15,25.4,11.7,25.2z"/>
					<path id="Path_121_2_" class="st16" d="M80.9,23.9c0,0.6-0.1,1.2-0.9,1.3c-1,0.1-2,0.1-3,0.1c-2.2,0-4.4,0-6.6,0
						c-0.8,0-0.9-0.4-0.9-1c0-0.6,0.1-1,0.9-1c3,0.1,5.9,0,8.9,0c0.2,0,0.5,0,0.7,0.1C80.4,23.3,80.6,23.7,80.9,23.9z"/>
					<path id="Path_122_2_" class="st17" d="M22.3,23c0.2,0,0.4,0,0.5,0c1.5,0,1.3-0.2,1.3,1.4c0,1.1,0,1.1-1.9,1.2l-0.2-0.2
						c-0.1-0.8-0.1-1.5,0-2.3L22.3,23z"/>
					<path id="Path_123_2_" class="st18" d="M22.1,23.1v2.3c-0.8-0.1-1.6-0.2-2.3-0.1c-2.4,0-4.7,0-7.1,0c-0.3,0.1-0.7,0-1-0.1
						c3.1,0,6.2,0,9.3,0c0.7,0,1-0.2,1-1c0-0.8-0.4-0.9-1-0.9c-3.1,0-6.2,0-9.3,0c0.5-0.1,1-0.2,1.5-0.1H21
						C21.4,23.3,21.7,23.3,22.1,23.1L22.1,23.1z"/>
					<path id="Path_124_2_" class="st19" d="M80,23.4c-3.1,0-6.2,0.1-9.3,0c-0.7,0-1,0.2-1,1c0,0.8,0.4,0.9,1,0.9c3.1,0,6.2,0,9.3,0
						c-0.4,0.1-0.8,0.2-1.2,0.1h-8.2c-0.4,0-0.7,0.1-1.1,0.1c-0.5-0.6-0.5-1.5-0.1-2.2c0.2-0.2,0.5-0.2,0.6,0c0,0,0,0,0,0l8.8,0.1
						C79.3,23.2,79.7,23.2,80,23.4z"/>
					<path id="Path_125_2_" class="st20" d="M38.5,16.4v15.7c-0.2-0.2-0.1-0.5-0.2-0.7V17.2C38.4,16.9,38.4,16.6,38.5,16.4z"/>
					<path id="Path_126_2_" class="st20" d="M53.2,32.2V16.4c0.2,0.2,0.2,0.5,0.2,0.7v14.3C53.3,31.7,53.4,32,53.2,32.2z"/>
					<path id="Path_127_2_" class="st21" d="M42.6,19.2h3.8c0.5-0.1,1,0.3,1.1,0.8c0,0,0,0,0,0.1c-1.6-1-3.2-0.4-4.7-0.5h-0.1
						C42.5,19.5,42.5,19.3,42.6,19.2C42.6,19.2,42.6,19.2,42.6,19.2L42.6,19.2z"/>
					<path id="Path_128_2_" class="st22" d="M42.8,19c0.1-0.1,0.1-0.2,0.2-0.4c0.9,0.2,1.8,0.3,2.8,0.2c0.3,0,0.7,0.1,1,0.2L42.8,19
						z"/>
					<path id="Path_129_2_" class="st13" d="M42.7,27.9c0-0.2,0.1-0.3,0.3-0.3c1.3-0.1,2.5-0.1,3.8,0.1c0.5,0,0.9,0.5,0.9,1
						c0,0.1,0,0.1,0,0.2c-0.1,0.6-0.5,0.7-1.1,0.7H44c-1.3,0-1.3,0-1.3-1.3c0.5-0.4,1-0.2,1.6-0.2c0.8,0,1.5,0,2.3,0h-3.1
						C43.2,28.1,42.9,28.2,42.7,27.9z"/>
					<path id="Path_130_2_" class="st17" d="M69.4,23l0.2,0.2v2.3l-0.2,0.2c-0.4,0-0.7-0.1-1.1,0c-0.5,0-0.8-0.1-0.8-0.7
						C67.5,23.1,67.5,23.1,69.4,23z"/>
					<path id="Path_131_2_" class="st23" d="M42.6,19.2v0.4l-0.1,1.3c0,0-0.1,0-0.1,0c-2,0.1-1.9,0.5-1.7-1.9
						C41.4,19,42,18.7,42.6,19.2z"/>
					<path id="Path_132_2_" class="st24" d="M42.5,27.8l0.1,0.2c0.1,0.1,0.1,0.2,0,0.4c-0.1,1.4-0.1,1.4-1.9,1.3
						c0-0.1-0.1-0.2-0.1-0.3C40.6,27.6,40.7,27.4,42.5,27.8z"/>
					<path id="Path_133_2_" class="st21" d="M42.6,28.3V28h3.9c0.5,0,0.9,0.1,0.9,0.8c-1-0.8-2.1-0.3-3.1-0.4c-0.5,0-1,0-1.5,0
						L42.6,28.3z"/>
					<path id="Path_134_2_" class="st25" d="M40.8,19c0,1.8,0,1.8,1.8,1.8c-0.6,0.4-1.3,0-2,0.2c0-0.7,0-1.4,0-2.1
						C40.7,19,40.7,19,40.8,19L40.8,19z"/>
					<path id="Path_135_2_" class="st25" d="M42.5,27.8c-1.8,0-1.8,0-1.8,1.8c0,0-0.1,0.1-0.1,0c0-0.7,0-1.4,0-2.1
						C41.2,27.8,41.9,27.4,42.5,27.8z"/>
					<path id="Path_136_2_" class="st26" d="M29.6,18.3c0.4,0,0.9,0,0.9,0.5c0.1,0.6-0.4,0.7-0.8,0.7c-1.6,0.1-3,1.4-3.1,3
						c-0.1,0.5-0.2,1-0.8,0.9c-0.6-0.1-0.6-0.5-0.5-1C25.5,20.2,27.3,18.4,29.6,18.3z"/>
				</g>
			</g>
			<ellipse id="Ellipse_5_2_" class="st27" cx="114.2" cy="48.7" rx="31" ry="31"/>
		</g>
	</g>
</g>
<g id="圖層_2">
</g>
</svg>
