<?xml version="1.0" encoding="utf-8"?>
<!-- Generator: Adobe Illustrator 23.0.3, SVG Export Plug-In . SVG Version: 6.00 Build 0)  -->
<svg version="1.1" xmlns="http://www.w3.org/2000/svg" xmlns:xlink="http://www.w3.org/1999/xlink" x="0px" y="0px"
	 viewBox="0 0 170 215" style="enable-background:new 0 0 170 215;" xml:space="preserve">
<style type="text/css">
	.st0{fill:#333333;}
	.st1{fill:#555555;stroke:#FFFFFF;stroke-width:0.25;stroke-miterlimit:10;}
	.st2{fill:#FAED4D;stroke:#FFFFFF;stroke-width:0.25;stroke-miterlimit:10;}
	.st3{fill:#333333;stroke:#FFFFFF;stroke-width:0.25;stroke-miterlimit:10;}
	.st4{fill:none;stroke:#231815;stroke-width:0.25;stroke-miterlimit:10;}
	.st5{fill:#FAED4D;}
	.st6{enable-background:new    ;}
	.st7{fill:#FFFFFF;}
	.st8{fill:none;}
	.st9{fill:none;stroke:#333333;}
	.st10{fill:none;stroke:#FFFFFF;stroke-width:0.25;stroke-miterlimit:10;}
	.st11{fill:#B28146;stroke:#333333;stroke-width:0.25;stroke-miterlimit:10;}
	.st12{clip-path:url(#SVGID_2_);}
	.st13{fill:#DFECF7;}
	.st14{fill:#35495D;}
	.st15{fill:#283A4C;}
	.st16{fill:#35495E;}
	.st17{fill:#283A4D;}
	.st18{fill:#4A5E71;}
	.st19{fill:#4A5D71;}
	.st20{fill:#4B5F71;}
	.st21{fill:#F4F7FB;}
	.st22{fill:#D5E5F2;}
	.st23{fill:#374B5F;}
	.st24{fill:#34495D;}
	.st25{fill:#4B6074;}
	.st26{fill:#647788;}
	.st27{fill:none;stroke:#FFFFFF;stroke-miterlimit:10;}
	.st28{clip-path:url(#SVGID_4_);}
	.st29{fill:#C5BF69;}
	.st30{fill:#E9E072;}
	.st31{fill:#9E9851;}
	.st32{fill:none;stroke:#FAED4D;}
</style>
<g id="圖層_1">
	<g>
		<path class="st0" d="M169,1v213H1V1H169 M170,0H0v215h170V0L170,0z"/>
	</g>
	<g>
		<rect x="0" class="st0" width="170" height="35"/>
	</g>
	<g class="st6">
		<path class="st7" d="M64.2,13.7c-0.7,1-1.6,1.9-2.5,2.5l-0.2-0.2c0.9-1,1.9-2.7,2.4-4.5l1.7,0.6c-0.1,0.2-0.3,0.3-0.6,0.3
			c-0.1,0.3-0.3,0.6-0.5,0.9h2.3l0.6-0.8c0,0,0.7,0.6,1.2,1c0,0.2-0.2,0.2-0.4,0.2H64.2z M73.8,20.1l1.2,1c-0.1,0.1-0.3,0.2-0.6,0.2
			c-0.1,1.6-0.5,2.7-1.1,3.1c-0.4,0.3-0.9,0.4-1.5,0.4c0-0.3,0-0.6-0.3-0.8s-0.7-0.3-1.2-0.4l0-0.2c0.5,0,1.4,0.1,1.7,0.1
			c0.2,0,0.4,0,0.5-0.1c0.3-0.2,0.5-1,0.6-2.2h-4.1v4.1c0,0.1-0.4,0.3-1,0.3h-0.2v-3.6c-1.5,1.4-3.6,2.6-6,3.3L61.7,25
			c2.2-0.9,4.1-2.3,5.3-3.9h-2.8l-0.5,0.6l-1.2-0.8c0.1-0.1,0.4-0.2,0.6-0.3c0.2-0.8,0.4-2,0.5-2.7l1.4,0.6h2.9v-1.8h-5l-0.1-0.4
			h9.6l0.6-0.6l1.3,0.9c-0.1,0.1-0.3,0.2-0.6,0.3v2.3c0,0.1-0.6,0.4-1,0.4h-0.2v-0.6h-3.4v1.8h4L73.8,20.1z M67.9,20.7v-1.8h-3.2
			c-0.1,0.6-0.3,1.2-0.4,1.8H67.9z M65,14c2.6,0.4,1.7,2.3,0.8,1.6c-0.1-0.5-0.5-1.1-0.9-1.5L65,14z M74.1,12.4c0,0,0.8,0.6,1.3,1.1
			c0,0.2-0.2,0.2-0.4,0.2h-4.9c-0.6,0.8-1.3,1.5-2,2l-0.2-0.2c0.7-0.9,1.5-2.4,1.9-4l1.6,0.6c-0.1,0.2-0.3,0.3-0.6,0.3
			c-0.1,0.3-0.3,0.5-0.5,0.8h2.9L74.1,12.4z M69.1,18.4h3.4v-1.8h-3.4V18.4z M70.9,14.1c2.7,0.3,1.9,2.2,0.9,1.6
			c-0.1-0.5-0.6-1.1-1-1.4L70.9,14.1z"/>
		<path class="st7" d="M88.3,23.8l0.9-1.1c0,0,1,0.8,1.7,1.3c0,0.2-0.2,0.2-0.4,0.2H77.1l-0.1-0.5H88.3z M87.6,13.5l0.9-1.1
			c0,0,1,0.8,1.6,1.3c0,0.2-0.2,0.2-0.4,0.2H77.9l-0.1-0.4H87.6z M86.3,18.4l0.9-1.1c0,0,1,0.7,1.6,1.3c0,0.2-0.2,0.2-0.4,0.2H79
			l-0.1-0.4H86.3z"/>
		<path class="st7" d="M104.7,16.1c0,0,0.9,0.7,1.5,1.2c0,0.2-0.2,0.2-0.4,0.2H92.5l-0.1-0.5h2.7v-4.2l1.6,0.2
			c0,0.2-0.1,0.3-0.5,0.4v3.7h2.4v-5.4l1.8,0.2c0,0.2-0.2,0.4-0.6,0.4v2h2.5l0.8-1c0,0,0.9,0.7,1.5,1.2c0,0.2-0.2,0.2-0.4,0.2h-4.4
			v2.4h4L104.7,16.1z M92.6,25.3c4.5-0.9,8-2.1,10.6-6.8l1.6,0.9c-0.1,0.2-0.3,0.2-0.7,0.1c-3,4.5-6.5,5.5-11.4,6L92.6,25.3z
			 M97.4,19.1c-0.1,0.1-0.2,0.2-0.6,0.2c-0.8,1.1-2.4,2.5-4,3.3l-0.1-0.2c1.3-1.1,2.6-2.8,3.2-4.1L97.4,19.1z M99.9,22.2
			c0,0.2-0.6,0.5-1,0.5h-0.1v-4.7l1.7,0.1c0,0.2-0.1,0.4-0.5,0.4V22.2z"/>
	</g>
	<g id="專刊圖表-05_2_" transform="translate(31.465 49.718)">
		<path id="Path_28_2_" class="st2" d="M49.4,5.9v13l0,0c2.2,0.6,4.3,1.4,6.3,2.4c-2.8-0.4-5.1,0.2-6.3,1.5v16.8
			c2.9,1.4,5.2,4.4,5.2,7v12.8l-5.2-2.2v17.2l23.8,11.8V48.4l0.9,0.3v38l12.3,6.1V53l0.9,0.3v40L91,95V14L49.4,5.9z M53.4,38.6V28.3
			c0-2.5,2.2-3.9,5-3.1c0.2,0,0.4,0.1,0.5,0.2c5.8,3.3,10,8.3,10,12.7v10.2c0-2.5-2.8-5.5-6.1-6.6c-2.7-0.9-4.9-0.3-5.6,1.2
			C56.6,41,55.2,39.4,53.4,38.6z M69.3,65.7L57,60.5V48.9c0-2.7,2.7-3.9,6-2.7c3.4,1.2,6.3,4.5,6.3,7.3L69.3,65.7z"/>
		<path id="Path_29_2_" class="st2" d="M47.5,39.1V22.4c-1.4-2.2-3.5-3.8-5.9-4.6c2,0.1,4,0.3,5.9,0.7V5.6l-30-5.9v59l2,1V29.9
			l0.5,0.2V60l7.5,3.7v-31l0.6,0.2V64l19.4,9.6v-17l-4.9-2.1V42.4C42.6,39.9,44.7,38.5,47.5,39.1z M40.5,53.7l-9.7-4.1V39.2
			c0-2.4,2.1-3.5,4.7-2.6c2.7,0.9,5,3.7,5,6.2L40.5,53.7z M40.5,37.2c-0.8-2.1-2.5-3.7-4.7-4.4c-2.6-0.9-4.7,0.2-4.7,2.3v-8.7
			c0-3.7,3.2-6.1,7.9-6.4c0.1,0,0.3,0.1,0.4,0.1c2.4,0.7,4.2,2.9,4.3,5.4v9.9C42.4,35,40.9,35.8,40.5,37.2
			C40.5,37.2,40.5,37.2,40.5,37.2L40.5,37.2z"/>
		<path id="Path_30_2_" class="st3" d="M102.8,128.7l-25.6,22.5L77,59.5l6-3v4.4l3.4-1.5L83,60.9l3.4-1.5v33.8L90,95V52.9l12.7-6.5
			L102.8,128.7z"/>
		<path id="Path_31_2_" class="st1" d="M73.2,55.1L70,56.2v-4.3l-6.9,2.7l10,3.5V55.1z"/>
		<path id="Path_32_2_" class="st1" d="M18.9,36.2l-2.1,0.5v-3.5L4.2,36.3l10.4,3.5l4.4-1.1V36.2z"/>
		<path id="Path_33_2_" class="st3" d="M3.9,98.9l0.3-62.6l10.4,3.5v66.4L3.9,98.9z"/>
		<path id="Path_34_2_" class="st3" d="M14.6,106.3V39.8l10.7-2.6v3.7l1.8-0.5V64l9.3,4.6v27.1L14.6,106.3z"/>
		<path id="Path_35_2_" class="st3" d="M63.3,97.3V81.8L60,80.2v15.6l3.2,1.5"/>
		<path id="Path_36_2_" class="st3" d="M60,95.8V80.2L36.4,68.6v27.1H60z"/>
		<path id="Path_37_2_" class="st5" d="M37.4,90V71.4l-7.8-3.8V85l-4.1-2.7l7.9,18.7l9.1-7.8L37.4,90z"/>
		<path id="Path_38_2_" class="st5" d="M60.9,103.7V84.2l-8.2-4v18.3l-4.3-2.8l8.3,19.7l9.5-8.2L60.9,103.7z"/>
		<path id="Path_39_2_" class="st3" d="M77,59.5l-13.8-4.9v86.5l14,10.1L77,59.5z"/>
	</g>
</g>
<g id="圖層_2">
</g>
</svg>
