<?xml version="1.0" encoding="utf-8"?>
<!-- Generator: Adobe Illustrator 23.0.3, SVG Export Plug-In . SVG Version: 6.00 Build 0)  -->
<svg version="1.1" xmlns="http://www.w3.org/2000/svg" xmlns:xlink="http://www.w3.org/1999/xlink" x="0px" y="0px"
	 viewBox="0 0 170 215" style="enable-background:new 0 0 170 215;" xml:space="preserve">
<style type="text/css">
	.st0{fill:#333333;}
	.st1{fill:#555555;stroke:#FFFFFF;stroke-width:0.25;stroke-miterlimit:10;}
	.st2{fill:#FAED4D;stroke:#FFFFFF;stroke-width:0.25;stroke-miterlimit:10;}
	.st3{fill:#333333;stroke:#FFFFFF;stroke-width:0.25;stroke-miterlimit:10;}
	.st4{fill:none;stroke:#231815;stroke-width:0.25;stroke-miterlimit:10;}
	.st5{fill:#FAED4D;}
	.st6{enable-background:new    ;}
	.st7{fill:#FFFFFF;}
	.st8{fill:none;}
	.st9{fill:none;stroke:#333333;}
	.st10{fill:none;stroke:#FFFFFF;stroke-width:0.25;stroke-miterlimit:10;}
	.st11{fill:#B28146;stroke:#333333;stroke-width:0.25;stroke-miterlimit:10;}
	.st12{clip-path:url(#SVGID_2_);}
	.st13{fill:#DFECF7;}
	.st14{fill:#35495D;}
	.st15{fill:#283A4C;}
	.st16{fill:#35495E;}
	.st17{fill:#283A4D;}
	.st18{fill:#4A5E71;}
	.st19{fill:#4A5D71;}
	.st20{fill:#4B5F71;}
	.st21{fill:#F4F7FB;}
	.st22{fill:#D5E5F2;}
	.st23{fill:#374B5F;}
	.st24{fill:#34495D;}
	.st25{fill:#4B6074;}
	.st26{fill:#647788;}
	.st27{fill:none;stroke:#FFFFFF;stroke-miterlimit:10;}
	.st28{clip-path:url(#SVGID_4_);}
	.st29{fill:#C5BF69;}
	.st30{fill:#E9E072;}
	.st31{fill:#9E9851;}
	.st32{fill:none;stroke:#FAED4D;}
</style>
<g id="圖層_1">
	<g>
		<path class="st0" d="M169,1v213H1V1H169 M170,0H0v215h170V0L170,0z"/>
	</g>
	<g>
		<rect x="0" class="st0" width="170" height="35"/>
	</g>
	<g class="st6">
		<path class="st7" d="M64.2,13.7c-0.7,1-1.6,1.9-2.5,2.5l-0.2-0.2c0.9-1,1.9-2.7,2.4-4.5l1.7,0.6c-0.1,0.2-0.3,0.3-0.6,0.3
			c-0.1,0.3-0.3,0.6-0.5,0.9h2.3l0.6-0.8c0,0,0.7,0.6,1.2,1c0,0.2-0.2,0.2-0.4,0.2H64.2z M73.8,20.1l1.2,1c-0.1,0.1-0.3,0.2-0.6,0.2
			c-0.1,1.6-0.5,2.7-1.1,3.1c-0.4,0.3-0.9,0.4-1.5,0.4c0-0.3,0-0.6-0.3-0.8s-0.7-0.3-1.2-0.4l0-0.2c0.5,0,1.4,0.1,1.7,0.1
			c0.2,0,0.4,0,0.5-0.1c0.3-0.2,0.5-1,0.6-2.2h-4.1v4.1c0,0.1-0.4,0.3-1,0.3h-0.2v-3.6c-1.5,1.4-3.6,2.6-6,3.3L61.7,25
			c2.2-0.9,4.1-2.3,5.3-3.9h-2.8l-0.5,0.6l-1.2-0.8c0.1-0.1,0.4-0.2,0.6-0.3c0.2-0.8,0.4-2,0.5-2.7l1.4,0.6h2.9v-1.8h-5l-0.1-0.4
			h9.6l0.6-0.6l1.3,0.9c-0.1,0.1-0.3,0.2-0.6,0.3v2.3c0,0.1-0.6,0.4-1,0.4h-0.2v-0.6h-3.4v1.8h4L73.8,20.1z M67.9,20.7v-1.8h-3.2
			c-0.1,0.6-0.3,1.2-0.4,1.8H67.9z M65,14c2.6,0.4,1.7,2.3,0.8,1.6c-0.1-0.5-0.5-1.1-0.9-1.5L65,14z M74.1,12.4c0,0,0.8,0.6,1.3,1.1
			c0,0.2-0.2,0.2-0.4,0.2h-4.9c-0.6,0.8-1.3,1.5-2,2l-0.2-0.2c0.7-0.9,1.5-2.4,1.9-4l1.6,0.6c-0.1,0.2-0.3,0.3-0.6,0.3
			c-0.1,0.3-0.3,0.5-0.5,0.8h2.9L74.1,12.4z M69.1,18.4h3.4v-1.8h-3.4V18.4z M70.9,14.1c2.7,0.3,1.9,2.2,0.9,1.6
			c-0.1-0.5-0.6-1.1-1-1.4L70.9,14.1z"/>
		<path class="st7" d="M89.3,23c0,0,1,0.8,1.5,1.3c0,0.2-0.2,0.2-0.4,0.2H77l-0.1-0.4h3.4c0.4-1.5,0.9-3.7,1.3-5.8h-3l-0.1-0.5h3.2
			c0.3-1.5,0.6-2.9,0.8-4H78l-0.1-0.4h9.7l0.8-1.1c0,0,1,0.8,1.5,1.3c0,0.2-0.2,0.2-0.4,0.2h-5.7c-0.2,1.2-0.5,2.6-0.8,4h3.2
			l0.7-0.7l1.3,1c-0.1,0.1-0.3,0.2-0.6,0.3v5.5h0.9L89.3,23z M82.9,18.4c-0.5,2.1-0.9,4.2-1.3,5.8h4.8v-5.8H82.9z"/>
		<path class="st7" d="M104.7,16.1c0,0,0.9,0.7,1.5,1.2c0,0.2-0.2,0.2-0.4,0.2H92.5l-0.1-0.5h2.7v-4.2l1.6,0.2
			c0,0.2-0.1,0.3-0.5,0.4v3.7h2.4v-5.4l1.8,0.2c0,0.2-0.2,0.4-0.6,0.4v2h2.5l0.8-1c0,0,0.9,0.7,1.5,1.2c0,0.2-0.2,0.2-0.4,0.2h-4.4
			v2.4h4L104.7,16.1z M92.6,25.3c4.5-0.9,8-2.1,10.6-6.8l1.6,0.9c-0.1,0.2-0.3,0.2-0.7,0.1c-3,4.5-6.5,5.5-11.4,6L92.6,25.3z
			 M97.4,19.1c-0.1,0.1-0.2,0.2-0.6,0.2c-0.8,1.1-2.4,2.5-4,3.3l-0.1-0.2c1.3-1.1,2.6-2.8,3.2-4.1L97.4,19.1z M99.9,22.2
			c0,0.2-0.6,0.5-1,0.5h-0.1v-4.7l1.7,0.1c0,0.2-0.1,0.4-0.5,0.4V22.2z"/>
	</g>
	<g id="專刊圖表-07_2_" transform="translate(20.855 65.813)">
		<path id="Path_60_2_" class="st3" d="M55,21.3V36l0,0c2.3,1,4.5,2.1,6.6,3.5c-2.9-0.8-5.3-0.4-6.6,1v19c3,2,5.4,5.6,5.4,8.6v14.5
			L55,79.4v19.4l24.9,16.5V72.4l0.9,0.4v43.1l12.9,8.6V79.2l1,0.5v45.4l3.8,2.5V35.5L55,21.3z M59.1,58.7V47.1
			c0-2.8,2.3-4.1,5.2-2.9c0.2,0.1,0.4,0.2,0.5,0.3c6.1,4.5,10.4,10.6,10.4,15.6v11.6c0-2.8-2.9-6.6-6.4-8.2c-2.8-1.3-5.1-1-5.8,0.7
			C62.5,61.8,61.1,59.9,59.1,58.7L59.1,58.7z M75.8,91.4L62.9,84V70.8c0-3,2.8-4.1,6.3-2.3c3.6,1.8,6.6,5.9,6.6,9.1V91.4z"/>
		<path id="Path_61_2_" class="st3" d="M24,78.3l0.5,0.4l7.8,5.2l0.6,0.4L53,97.5V78.3l-5.1-3V61.6c0-2.8,2.2-4.1,5.1-3.1V39.7
			c-1.4-2.6-3.5-4.6-6.1-6c2.1,0.3,4.1,0.8,6.1,1.6V20.7L22,10.5v66.3L24,78.3 M45.8,74.1l-10-5.8V56.7c0-2.7,2.2-3.7,4.9-2.4
			c2.8,1.4,5.1,4.8,5.1,7.6V74.1z M45.7,55.5c-0.8-2.4-2.6-4.4-4.8-5.5c-2.7-1.3-4.8-0.4-4.8,2v-9.7c0-4.2,3.3-6.5,8.1-6.2
			c0.1,0,0.3,0.1,0.5,0.2c2.6,1.2,4.3,3.8,4.5,6.7V54c-1.2-0.6-2.6-0.1-3.2,1.1C45.8,55.2,45.7,55.4,45.7,55.5L45.7,55.5z"/>
		<line id="Line_33_2_" class="st4" x1="20" y1="17.1" x2="9.2" y2="13.5"/>
		<line id="Line_34_2_" class="st4" x1="20" y1="17.1" x2="20" y2="26"/>
		<line id="Line_35_2_" class="st4" x1="9.2" y1="13.5" x2="9.2" y2="21.3"/>
		<line id="Line_36_2_" class="st4" x1="9.2" y1="13.5" x2="20.6" y2="10.7"/>
		<line id="Line_37_2_" class="st4" x1="20.6" y1="10.7" x2="20.6" y2="17"/>
		<line id="Line_38_2_" class="st4" x1="77.8" y1="29.7" x2="77.8" y2="34.1"/>
		<line id="Line_39_2_" class="st4" x1="81" y1="33" x2="77.8" y2="34.1"/>
		<path id="Path_62_2_" class="st3" d="M70.6,49.2v73.4L85.1,133L85,55.5"/>
		<line id="Line_40_2_" class="st4" x1="70.6" y1="32.5" x2="77.8" y2="29.7"/>
		<path id="Path_63_2_" class="st7" d="M24.9,13.5l-2.5,0.7l-0.2-0.3v-3l-0.5-0.2l-0.2,5l0.2,0.7l0.5-0.1l2.7-0.7L24.9,13.5z"/>
		<line id="Line_41_2_" class="st10" x1="81" y1="33" x2="81" y2="36.2"/>
		<line id="Line_42_2_" class="st4" x1="9.2" y1="21.3" x2="20" y2="26"/>
		<path id="Path_64_2_" class="st3" d="M20,26l3.2-0.9v1.8l-3.2,1v58.4l8.8-4.5l0,0V19l-1.9,0.5v-4.2L20,17.1"/>
		<line id="Line_43_2_" class="st10" x1="85" y1="53" x2="87" y2="52"/>
		<line id="Line_44_2_" class="st10" x1="85.1" y1="55.5" x2="86.9" y2="54.6"/>
		<line id="Line_45_2_" class="st10" x1="87" y1="52" x2="87" y2="54.6"/>
		<line id="Line_46_2_" class="st10" x1="9.1" y1="22.9" x2="11.1" y2="22.1"/>
		<path id="Path_65_2_" class="st1" d="M25.1,9.7l16.8-4.1v6.1L32.6,14l-7.5-2.5V9.7z"/>
		<path id="Path_66_2_" class="st3" d="M94.6,124.7l-9.5,8.3L85,55.5l2-0.8V52l-2,1l0-15.4l6.3-3.2V39l3.6-1.5L94.6,124.7"/>
		<path id="Path_67_2_" class="st3" d="M85,53l-14.4-6L85,53V37.6l-14.4-5.1V47"/>
		<path id="Path_68_2_" class="st3" d="M9.2,22.9L8.9,78.6L20,86.3V27.9l-11.1-5"/>
		<path id="Path_69_2_" class="st3" d="M43,11.5l-10.4,2.4L43,17.5V11.5z"/>
		<path id="Path_70_2_" class="st3" d="M67.5,25.3L43,17.4v-5.9l24.6,0.9v13.1"/>
		<path id="Path_71_2_" class="st3" d="M67.5,12.3L81.3,16v13.9l-13.7-4.6V12.3z"/>
		<path id="Path_72_2_" class="st3" d="M90.5,32.9l-9.2-3V16l9.2,8.8v7.9"/>
		<path id="Path_73_2_" class="st3" d="M95.6,34.6v-2.3l16.2-8.3v85.6l-13.3,11.6V35.5L95.6,34.6z"/>
		<path id="Path_74_2_" class="st3" d="M77.7,57.4L2.7,21.7v-9.5l75.1,32.5L77.7,57.4z"/>
		<path id="Path_75_2_" class="st1" d="M95,37.5v4.6l3.3,1.2v-7.4l-3.7,1.6H95z"/>
		<path id="Path_76_2_" class="st1" d="M84.9,54.2L78,57.1v-5.9L84.9,54.2z"/>
		<path id="Path_77_2_" class="st5" d="M94.2,27.9l0.1-10.3L91,16.5v10.1L89.5,26l2.9,6.4l4-3.6L94.2,27.9z"/>
		<path id="Path_78_2_" class="st5" d="M49.7,12.7l0.1-11.2l-3.6-1.2v11l-1.7-0.7l3.2,7l4.3-3.9L49.7,12.7z"/>
		<path id="Path_79_2_" class="st2" d="M100.8,15.6L25.1-9.3v4l75.7,25.6V15.6z"/>
		<path id="Path_80_2_" class="st2" d="M120.7,19.3l5,1.4l-5-13.7l-4.2,1.8L120.7,19.3z"/>
		<path id="Path_81_2_" class="st2" d="M116.9,23.6l5,1.5l3.8-4.4l-5-1.4L116.9,23.6z"/>
		<path id="Path_82_2_" class="st11" d="M46-14.3l0.2,0.1l0,0L46-14.3z"/>
		<path id="Path_83_2_" class="st2" d="M112.6,4.7l4.3-1.4L52.7-14.2l-3.8,0.7l-2.7-0.8L25.1-9.3l75.7,24.9L120.7,7L112.6,4.7z"/>
		<path id="Path_84_2_" class="st5" d="M114.4,28.2l-1-0.4l-1.1,4.7l6-3l-1.2-0.4l2.9-3.7l-2.4-0.6L114.4,28.2z"/>
		<path id="Path_85_2_" class="st3" d="M17.8,9l80.7,26.5l-20.8,9.2L2.7,12.2L17.8,9z"/>
		<line id="Line_47_2_" class="st10" x1="85" y1="55.5" x2="83.2" y2="54.9"/>
	</g>
</g>
<g id="圖層_2">
</g>
</svg>
