<svg width="400" height="300" viewBox="0 0 400 300" fill="none" xmlns="http://www.w3.org/2000/svg">
<rect width="400" height="300" fill="#E5E5E5"/>
<path d="M155.344 210.904H156.496V211.416H155.344V210.904ZM154.336 212.216H157.584V210.088H154.336V212.216ZM153.68 209.624H158.192V212.68H153.68V209.624ZM152.224 213.736H159.728V208.584H152.224V213.736ZM154.288 205.016H157.568V205.656H154.288V205.016ZM156.736 207.08V206.6H159.168V204.056H152.784V206.6H155.136V207.08H151.488V208.12H160.544V207.08H156.736ZM150.944 214.264V203.544H161.024V214.264H150.944ZM149.184 201.976V216.376H150.944V215.816H161.024V216.376H162.88V201.976H149.184ZM180.048 207.384V205.416H176.272V201.464H174.208V205.416H170.288V201.784H168.288V207.16C168.288 209.848 168.064 212.792 166.08 214.936C166.544 215.272 167.28 216.008 167.568 216.488C168.96 215.048 169.632 213.272 169.984 211.432H176.048V216.408H178.144V209.432H170.224C170.272 208.744 170.288 208.072 170.288 207.384H180.048ZM195.2 212.12C194.896 212.6 194.528 213 194.08 213.352C193.6 213 193.2 212.584 192.896 212.12H195.2ZM196.336 210.808L196.048 210.856H190.896V212.12H192.432L191.392 212.408C191.744 213.08 192.192 213.688 192.72 214.2C191.904 214.584 190.976 214.84 189.968 215.016C190.256 215.368 190.592 215.976 190.768 216.392C192 216.136 193.104 215.768 194.064 215.224C194.96 215.752 196.016 216.152 197.216 216.392C197.472 215.912 197.952 215.224 198.336 214.856C197.28 214.728 196.336 214.488 195.536 214.152C196.336 213.384 196.976 212.392 197.376 211.144L196.336 210.808ZM197.168 203.128C196.752 203.624 196.048 204.28 195.44 204.76C195.136 204.536 194.848 204.296 194.576 204.04C195.168 203.608 195.856 203.048 196.496 202.52L195.136 201.544C194.768 201.992 194.176 202.552 193.648 203C193.28 202.52 192.976 201.992 192.72 201.448L191.2 201.88C191.984 203.624 193.104 205.096 194.544 206.2H192.096V206.216H191.376V207.336C191.376 208.04 191.232 208.84 190.208 209.496V206.28H188.16C189.44 205.304 190.496 204.056 191.152 202.504L189.984 201.928L189.664 202.008H185.488V203.496H188.64C188.368 203.848 188.048 204.2 187.696 204.52C187.232 204.168 186.56 203.784 186.016 203.512L184.944 204.52C185.424 204.792 185.984 205.16 186.416 205.48C185.584 206.008 184.672 206.424 183.744 206.696C184.08 207.048 184.528 207.688 184.768 208.088C185.152 207.944 185.52 207.8 185.888 207.624V207.736H188.528V208.856H185.584C185.392 210.136 185.04 211.752 184.752 212.808L186.272 213.048L186.368 212.664H188.432C188.32 213.88 188.192 214.456 187.984 214.648C187.824 214.776 187.664 214.792 187.392 214.792C187.056 214.792 186.256 214.776 185.456 214.712C185.76 215.144 185.952 215.816 186 216.312C186.848 216.344 187.664 216.344 188.128 216.296C188.688 216.248 189.056 216.136 189.408 215.752C189.84 215.32 190.032 214.264 190.208 211.96C190.224 211.736 190.24 211.288 190.24 211.288H186.688C186.768 210.952 186.832 210.616 186.896 210.264H188.528V210.456H190.208V209.752C190.544 210.04 191.008 210.536 191.2 210.808C192.528 209.96 192.912 208.76 192.96 207.64H194.4V208.568C194.4 209.464 194.496 209.768 194.768 210.04C195.024 210.296 195.44 210.392 195.824 210.392H196.64C196.864 210.392 197.2 210.36 197.408 210.28C197.664 210.2 197.872 210.056 198 209.832C198.112 209.64 198.176 209.224 198.24 208.808C197.792 208.664 197.184 208.36 196.912 208.104C196.896 208.44 196.88 208.712 196.848 208.84C196.816 208.952 196.752 209 196.688 209.032C196.656 209.048 196.56 209.048 196.48 209.048H196.208C196.128 209.048 196.064 209.032 196.032 208.984C196 208.936 196 208.808 196 208.6V207.128C196.56 207.416 197.168 207.672 197.808 207.88C198.064 207.448 198.544 206.744 198.944 206.376C198.144 206.168 197.392 205.896 196.72 205.544C197.296 205.128 197.952 204.616 198.544 204.104L197.168 203.128ZM210.064 214.072V210.856H214.848V209.016H210.064V206.2H215.456V204.344H210.064V201.464H208.064V204.344H205.6C205.872 203.608 206.128 202.856 206.352 202.088L204.384 201.656C203.84 203.832 202.8 206.04 201.552 207.384C202.032 207.64 202.88 208.216 203.264 208.52C203.792 207.896 204.288 207.08 204.752 206.2H208.064V209.016H203.728V210.856H208.064V214.072H201.888V215.944H216.272V214.072H210.064ZM231.52 210.792V211.752H228.304V210.792H231.52ZM228.304 214.184V213.16H231.52V214.184H228.304ZM226.592 216.376H228.304V215.752H231.52V216.36H233.328V209.288H226.592V216.376ZM229.088 204.936H230.592V206.696H229.088V204.936ZM221.328 205.4C221.936 204.664 222.432 203.928 222.816 203.256C223.472 203.896 224.176 204.744 224.624 205.4H221.328ZM232.32 206.696V204.936H233.856V203.336H232.32V201.448H230.592V203.336H229.088V201.448H227.36V203.336H226.016V204.184C225.408 203.336 224.256 202.216 223.312 201.464H221.76C221.248 202.696 220.336 204.2 219.008 205.336C219.392 205.576 219.936 206.216 220.176 206.6L220.288 206.488V206.984H221.76V208.152H219.584V209.768H221.76V214.008C220.88 214.136 220.064 214.264 219.392 214.344L219.76 216.04C221.44 215.752 223.712 215.368 225.808 214.968L225.712 213.368C224.944 213.496 224.16 213.624 223.408 213.752V209.768H225.488V208.152H223.408V206.984H225.024V205.608L226.016 204.44V204.936H227.36V206.696H225.536V208.344H234.208V206.696H232.32ZM224.704 213.272C224.976 212.584 225.28 211.528 225.6 210.584L224.16 210.232C224.064 211.032 223.792 212.2 223.568 212.936L224.704 213.272ZM219.68 210.696C219.936 211.576 220.176 212.712 220.224 213.48L221.536 213.112C221.456 212.376 221.2 211.24 220.928 210.376L219.68 210.696ZM249.424 205.208H247.504V203.464H249.424V205.208ZM251.168 201.896H245.856V206.776H251.168V201.896ZM242.032 201.944H237.728V203.384H242.032V201.944ZM242.592 204.088H236.928V205.592H242.592V204.088ZM242.064 206.312H237.632V207.768H242.064V206.312ZM237.632 209.928H242.064V208.504H237.632V209.928ZM240.528 212.2V214.04H239.136V212.2H240.528ZM242.096 210.712H237.584V216.168H239.136V215.528H242.096V210.712ZM251.92 212.44V210.744H250.736V207.672H244.976V203.16H243.248V209.976H244.976V209.32H248.88V210.744H242.672V212.44H245.136C244.528 213.352 243.376 214.52 242.272 215.176C242.72 215.496 243.344 216.024 243.648 216.376C244.8 215.672 246.112 214.376 246.864 213.272L245.376 212.44H249.424L247.888 213.272C248.816 214.2 249.92 215.528 250.368 216.392L252.048 215.432C251.536 214.552 250.4 213.32 249.472 212.44H251.92Z" fill="#666666"/>
<path d="M164.542 91C159.294 91 155 95.2941 155 100.542V167.339C155 169.87 156.005 172.297 157.795 174.086C159.584 175.876 162.012 176.881 164.542 176.881H207.912C207.626 175.307 207.483 173.732 207.483 172.11C207.483 168.866 208.055 165.621 209.153 162.568H164.542L181.241 141.097L193.169 155.411L209.869 133.941L220.508 148.111C225.136 145.105 230.575 143.483 236.11 143.483C237.732 143.483 239.307 143.626 240.881 143.912V100.542C240.881 98.0116 239.876 95.5844 238.086 93.7949C236.297 92.0054 233.87 91 231.339 91H164.542ZM219.268 161.995L229.383 172.11L219.268 182.225L225.995 189L236.11 178.837L246.225 189L253 182.225L242.837 172.11L253 161.995L246.225 155.22L236.11 165.383L225.995 155.268L219.22 161.995H219.268Z" fill="#666666"/>
</svg>
