<?xml version="1.0" encoding="utf-8"?>
<!-- Generator: Adobe Illustrator 23.0.3, SVG Export Plug-In . SVG Version: 6.00 Build 0)  -->
<svg version="1.1" id="圖層_1" xmlns="http://www.w3.org/2000/svg" xmlns:xlink="http://www.w3.org/1999/xlink" x="0px" y="0px"
	 viewBox="0 0 1025 473" style="enable-background:new 0 0 1025 473;" xml:space="preserve">
<style type="text/css">
	.st0{enable-background:new    ;}
	.st1{fill:#FFFFFF;}
	.st2{fill:#FAED4D;}
	.st3{fill:#FDF8B8;}
	.st4{fill:#FBF282;}
	.st5{fill:#FCF494;}
	.st6{fill:none;stroke:#FFFFFF;stroke-miterlimit:10;}
</style>
<g class="st0">
	<path class="st1" d="M824.8,275.6l-1,1.3c-6.2-5-11.5-8.6-15.9-10.9v20.2h-1.6v-23c-3.8,4.7-9,9.3-15.8,13.8l-1-1.3
		C800,269,806.8,261.8,810,254h-19.8v-1.5h34v1.5h-12.6c-0.9,2.3-2.1,4.6-3.7,6.9v3.3C813.4,267.1,819,270.9,824.8,275.6z"/>
	<path class="st1" d="M844.5,254.8h-5.1c-1,4.5-1.9,8-2.8,10.4h7.1v17.7H842v-2h-4.8v2.8h-1.6v-16.3c-0.8,1.7-1.7,3.2-2.7,4.5
		l-1.1-1.2c2.7-3.6,4.7-9,5.9-15.9h-5.4v-1.5h12.2V254.8z M842,279.5v-12.8h-4.8v12.8H842z M866.5,283.7h-16.3v2.5h-1.6v-19.8
		c-1,1.1-2,2-3.1,2.9l-1-1.1c4.3-3.6,7.3-7.5,9-11.6h-5.9v4.9H846v-6.4h8.1c0.4-0.9,0.8-2.2,1.3-3.9l1.4,0.4c-0.3,1.2-0.6,2.4-1,3.4
		h9.6v6.4h-1.6v-4.9h-8.6c-1.3,2.9-3,5.6-5.2,8.3h7.9c-0.3-1.1-0.8-2.4-1.5-3.8l1.4-0.5c1,2.2,1.5,3.6,1.7,4.3h6.4v1.5h-7v4.1h6.4
		v1.5h-6.4v4.3h6.4v1.5h-6.4v4.5h7.6V283.7z M857.3,270.4v-4.1h-7.1v4.1H857.3z M857.3,276.2v-4.3h-7.1v4.3H857.3z M857.3,282.2
		v-4.5h-7.1v4.5H857.3z"/>
	<path class="st1" d="M908.5,283.9l-0.4,1.5l-4.5,0.1c-7.6,0-13-0.8-16.2-2.4s-5.3-3.7-6.4-6.2c-1.5,3.3-3.7,6.4-6.6,9.4l-1.2-1
		c4.1-3.9,7.1-9.5,8.9-16.6l1.5,0.1c-0.6,2.3-1.2,4.4-1.9,6.2c0.8,2,1.9,3.7,3.2,4.9s3.3,2.2,6,3.1v-18.2h-12.4v-1.5h24.9v1.5h-11
		v8.1h13.2v1.5h-13.2v8.9c2.6,0.5,7.4,0.7,14.2,0.7H908.5z M907.3,263.5h-1.6v-6.3h-28.9v6.3h-1.6v-7.8h15.1c-0.4-1.3-0.9-2.6-1.6-4
		l1.6-0.6c0.5,0.8,1.1,2.3,1.8,4.6h15.1V263.5z"/>
</g>
<g class="st0">
	<path class="st1" d="M807.9,332.9v-27.8c-1.8,1.7-4.3,3.1-7.4,4.2v-1.8c1.6-0.5,3.1-1.2,4.4-2.1c1.3-0.8,2.8-2,4.3-3.4h0.7v30.9
		H807.9z"/>
	<path class="st1" d="M838.8,317.5c-2.1,0-3.8-0.7-5.1-2.1c-1.3-1.4-1.9-3.2-1.9-5.6c0-2.4,0.7-4.3,2-5.7c1.3-1.4,3.1-2.1,5.3-2.1
		c2.1,0,3.8,0.7,5,2.1c1.2,1.4,1.8,3.3,1.8,5.7c0,2.2-0.7,4.1-2,5.5C842.6,316.8,840.9,317.5,838.8,317.5z M839,303.8
		c-1.6,0-2.9,0.5-3.8,1.6c-0.9,1.1-1.4,2.6-1.4,4.5c0,1.8,0.5,3.3,1.4,4.3c0.9,1,2.1,1.6,3.7,1.6c1.6,0,2.8-0.5,3.7-1.6
		s1.4-2.6,1.4-4.4c0-1.9-0.4-3.3-1.3-4.4C841.8,304.4,840.6,303.8,839,303.8z M838.9,333.6h-2.1l18.3-30.9h2.1L838.9,333.6z
		 M855.4,333.4c-2.1,0-3.8-0.7-5.1-2.1s-1.9-3.3-1.9-5.5c0-2.4,0.7-4.3,2-5.7s3.1-2.1,5.3-2.1c2.1,0,3.7,0.7,5,2.1s1.9,3.3,1.9,5.7
		c0,2.2-0.7,4.1-2,5.5S857.5,333.4,855.4,333.4z M855.6,319.7c-1.6,0-2.8,0.5-3.8,1.6s-1.4,2.6-1.4,4.5c0,1.8,0.4,3.2,1.3,4.3
		s2.1,1.6,3.7,1.6s2.8-0.5,3.7-1.6s1.4-2.5,1.4-4.4c0-2-0.4-3.5-1.3-4.5S857.1,319.7,855.6,319.7z"/>
</g>
<g class="st0">
	<path class="st1" d="M136.5,321.5c-3.6,2.4-7.6,4.6-11.8,6.6l-0.9-1.4c1.6-0.7,3.4-1.5,5.3-2.6v-11.6h-4.4V311h4.4v-9.8h-5v-1.5h11
		v1.5h-4.4v9.8h3.9v1.5h-3.9v10.7c2-1,3.7-2.1,5.2-3.2L136.5,321.5z M156.5,319.3h-11c-0.9,1.2-2.3,2.6-4.2,4v6.2
		c2.2-0.7,4.4-1.5,6.7-2.5l0.4,1.4c-2.6,1.1-5.5,2.2-8.9,3.3l-0.6-1.2c0.5-0.4,0.8-0.9,0.8-1.4v-4.6c-2.2,1.4-4.2,2.6-6,3.4l-1-1.3
		c5.4-2.5,9-4.9,10.8-7.3h-6.2V313h19.2V319.3z M159,309.9h-24.3v-1.4H159V309.9z M157.1,305.4h-20.3V298h20.3V305.4z M143,304v-4.6
		h-4.6v4.6H143z M154.9,317.9v-3.5h-16v3.5H154.9z M149.2,304v-4.6h-4.6v4.6H149.2z M159.3,330.4l-0.8,1.3c-6-2-9.9-5.4-11.7-10.2
		l1.4-0.5c0.6,1.6,1.5,3.1,2.6,4.3c2-1.1,3.9-2.5,5.6-4.2l1.1,1c-1.6,1.6-3.5,3-5.7,4.2C153.7,328,156.2,329.4,159.3,330.4z
		 M155.5,304v-4.6h-4.6v4.6H155.5z"/>
	<path class="st1" d="M177.2,323.3c-3.3,1.8-6.9,3.4-10.5,4.8l-0.6-1.5c1.8-0.6,3.4-1.3,4.8-1.9v-15.6h-4.4v-1.5h4.4V297h1.6v10.8
		h3.3v1.5h-3.3v14.9c1.4-0.6,2.9-1.4,4.5-2.3L177.2,323.3z M201,325.6c-0.1,1.3-0.2,2.5-0.5,3.4s-0.8,1.5-1.4,1.8s-1.8,0.4-3.5,0.4
		c-1.4,0-2.4-0.1-2.8-0.2s-0.8-0.4-1.1-0.8s-0.4-1-0.4-1.7v-7.1h-4.9c-0.4,5.2-4.1,8.6-11.2,10.1l-0.8-1.3
		c6.6-1.4,10.1-4.3,10.4-8.8h-5.1v-10.9h19v10.9h-5.8v7.1c0,0.5,0.1,0.8,0.4,0.9s1.1,0.2,2.4,0.2c1.4,0,2.2-0.1,2.6-0.2
		s0.6-0.5,0.8-1.1s0.3-1.7,0.4-3.5L201,325.6z M200.9,307.9h-23.6v-1.4h7.2c-0.5-1.7-1.2-3.2-2-4.7H178v-1.4h10.6
		c-0.4-1.1-0.8-2.1-1.5-3.1l1.6-0.6c0.7,1.2,1.2,2.4,1.7,3.7h9.9v1.4h-4.4c-0.6,1.6-1.3,3.2-2.1,4.7h7.2V307.9z M197,315.2V312
		h-15.8v3.2H197z M197,320.1v-3.4h-15.8v3.4H197z M194.1,301.8h-9.8c0.6,1.2,1.2,2.7,1.9,4.7h5.8C193,304.6,193.7,303,194.1,301.8z"
		/>
	<path class="st1" d="M216.7,309.2c2.8,2.1,4.2,5.4,4.2,9.8c0,3-1.7,4.6-5.2,4.6l-2.2,0l-0.6-1.6c1,0.1,2,0.2,2.9,0.2
		c1.1,0,2-0.3,2.6-0.8s0.9-1.5,0.9-2.9c0-3.8-1.4-6.7-4.3-8.8c1.9-4.2,3.2-7.6,3.9-10.1h-7v32.2h-1.6v-33.7h10.3v1.5
		C219.6,302.6,218.3,305.9,216.7,309.2z M240.6,314.1h-15v15.4c2.7-1.1,5.1-2.3,7.2-3.4l0.1,1.7c-2.7,1.4-5.7,2.7-8.9,4l-0.7-1.4
		c0.5-0.2,0.8-0.7,0.8-1.2v-31.1h16.6V314.1z M239,305.2v-5.6h-13.4v5.6H239z M239,312.6v-5.9h-13.4v5.9H239z M243.7,330.4l-1,1.4
		c-6.5-3-10.7-8.2-12.6-15.6l1.4-0.6c0.8,2.9,1.7,5.1,2.8,6.8c3.2-2.2,5.5-4.3,7-6.2l1.3,1c-2.1,2.3-4.6,4.4-7.5,6.4
		C237,326.3,239.8,328.6,243.7,330.4z"/>
	<path class="st1" d="M271.9,311.2h-10v5.2h8.6v10c0,1.8-1,2.8-3,2.8h-2.6l-0.6-1.6h3.4c0.8,0,1.2-0.5,1.2-1.4V318h-7v13.6h-1.6V318
		h-6.8v11.5h-1.6v-13h8.4v-5.2h-10.4v-1.5h10.4v-5.9h-6.9c-0.8,1.7-1.5,3-2.2,3.8l-1.4-0.8c2-2.9,3.5-6,4.5-9.5l1.6,0.3
		c-0.5,1.8-1.1,3.3-1.7,4.7h6.2v-5.6h1.6v5.6h9v1.5h-9v5.9h10V311.2z M276.5,324.6h-1.6v-24.8h1.6V324.6z M283.5,329
		c0,0.7-0.3,1.3-0.8,1.8s-1.2,0.7-1.9,0.7h-5.2l-0.6-1.7h5.6c0.3,0,0.6-0.1,0.8-0.4s0.4-0.6,0.4-0.9V297h1.6V329z"/>
</g>
<g class="st0">
	<path class="st1" d="M198,376.4c1.9,1.1,3.9,1.6,5.8,1.6c2.4,0,4.3-0.7,5.7-2s2.1-3.1,2.1-5.4c0-4.9-2.8-7.3-8.4-7.3
		c-1.3,0-2.8,0.1-4.4,0.3l0.9-14.4h12.7v1.8h-10.9l-0.7,10.7c1.4-0.1,2.5-0.2,3.1-0.2c3.1,0,5.5,0.8,7.2,2.3
		c1.7,1.5,2.5,3.7,2.5,6.6c0,2.9-0.9,5.3-2.7,7c-1.8,1.7-4.3,2.6-7.4,2.6c-2.2,0-4.1-0.4-5.6-1.1V376.4z"/>
	<path class="st1" d="M228.1,379.4v-27.8c-1.8,1.7-4.3,3.1-7.4,4.2v-1.8c1.6-0.5,3.1-1.2,4.4-2.1c1.3-0.8,2.8-2,4.3-3.4h0.7v30.9
		H228.1z"/>
	<path class="st1" d="M259,364c-2.1,0-3.8-0.7-5.1-2.1c-1.3-1.4-1.9-3.2-1.9-5.6c0-2.4,0.7-4.3,2-5.7c1.3-1.4,3.1-2.1,5.3-2.1
		c2.1,0,3.8,0.7,5,2.1c1.2,1.4,1.8,3.3,1.8,5.7c0,2.2-0.7,4.1-2,5.5C262.8,363.3,261.1,364,259,364z M259.2,350.3
		c-1.6,0-2.9,0.5-3.8,1.6c-0.9,1.1-1.4,2.6-1.4,4.5c0,1.8,0.5,3.3,1.4,4.3c0.9,1,2.1,1.6,3.7,1.6c1.6,0,2.8-0.5,3.7-1.6
		c0.9-1.1,1.4-2.6,1.4-4.4c0-1.9-0.4-3.3-1.3-4.4C262,350.8,260.8,350.3,259.2,350.3z M259.1,380.1H257l18.3-30.9h2.1L259.1,380.1z
		 M275.6,379.9c-2.1,0-3.8-0.7-5.1-2.1s-1.9-3.3-1.9-5.5c0-2.4,0.7-4.3,2-5.7c1.3-1.4,3.1-2.1,5.3-2.1c2.1,0,3.7,0.7,5,2.1
		c1.2,1.4,1.9,3.3,1.9,5.7c0,2.2-0.7,4.1-2,5.5C279.4,379.2,277.7,379.9,275.6,379.9z M275.8,366.2c-1.6,0-2.8,0.5-3.8,1.6
		s-1.4,2.6-1.4,4.5c0,1.8,0.4,3.2,1.3,4.3s2.1,1.6,3.7,1.6c1.6,0,2.8-0.5,3.7-1.6c0.9-1.1,1.4-2.5,1.4-4.4c0-2-0.4-3.5-1.3-4.5
		C278.6,366.7,277.3,366.2,275.8,366.2z"/>
</g>
<g class="st0">
	<path class="st1" d="M770,111.3c-5.3,3.7-10.9,7.3-16.8,10.6l-0.6-1.5l3.8-2.1V89h1.6v28.3c3.6-2.1,7.6-4.7,11.8-7.8L770,111.3z
		 M773.5,102.3l-1.4,0.8c-2.4-4.1-5-7.7-7.8-11.1l1.5-0.7C768.9,95.1,771.4,98.8,773.5,102.3z M787.5,122.5l-1.2,1.1
		c-2.3-3-5.1-6.3-8.5-9.8c-2.3,3.4-6.2,6.7-11.5,9.9l-1.2-1.2c6.6-3.8,11-8,13.2-12.7c2.2-4.7,3.3-11.7,3.4-21h1.6
		c-0.2,11.3-1.8,19.1-4.7,23.6C781.7,115.6,784.7,118.9,787.5,122.5z"/>
	<path class="st1" d="M829.5,122.4h-34.6v-1.5H810v-32h1.6v12.7h16.2v1.5h-16.2v17.9h17.9V122.4z"/>
	<path class="st1" d="M853.9,100.9c-3.3,1-7.9,2.2-13.7,3.7l-0.9-1.3c0.4-0.3,0.6-0.7,0.6-1.2V88.8h1.6v4.5h11.6v1.5h-11.6v7.7
		c4.5-1.1,8.5-2.1,12.2-3.2L853.9,100.9z M867,123.5h-1.6v-2.8h-22.1v2.8h-1.6v-16.6h8.1c0.9-1.5,1.5-2.7,1.9-3.7l1.6,0.6
		c-0.6,1.3-1.2,2.4-1.6,3.1H867V123.5z M865.4,113v-4.7h-22.1v4.7H865.4z M865.4,119.2v-4.8h-22.1v4.8H865.4z M871.3,98.2
		c-0.1,1.5-0.3,2.7-0.7,3.5c-0.4,0.8-0.9,1.3-1.5,1.4c-0.6,0.2-2.4,0.2-5.4,0.2l-5,0c-1.5,0-2.3-0.9-2.3-2.6V88.8h1.6v4.4H870v1.5
		h-12.1v6c0,0.5,0.2,0.9,0.5,1c0.3,0.1,2.5,0.2,6.5,0.2c2.1,0,3.3-0.1,3.6-0.2s0.6-0.6,0.8-1.3c0.2-0.7,0.3-1.7,0.4-2.7L871.3,98.2z
		"/>
	<path class="st1" d="M893.3,101.9c0,3.9-0.2,7.1-0.7,9.5s-1.5,4.6-3,6.6s-3.9,3.8-7,5.5l-0.9-1.3c5.1-2.5,8.2-6.2,9.3-11.1
		c-3.1,1-7,2-11.7,3.1l-0.7-1.5c4.2-0.8,8.4-1.9,12.7-3.3c0.2-1.5,0.4-3.2,0.4-5.2h-12v-1.4h12v-6.7h-12.4v-1.5h12.4v-5.8h1.6V101.9
		z M913.5,113.5h-12.4v10h-1.6V88.9h1.6v5.8h11.6v1.5h-11.6v7.2h10.8v1.5h-10.8v7.1h12.4V113.5z"/>
</g>
<g class="st0">
	<path class="st1" d="M776.3,141.9c-2.8,5.2-4.9,9.3-6.3,12.3s-2.5,5.9-3.4,8.7s-1.5,5.6-2,8.5h-2.3c0.7-4.1,1.9-8.3,3.5-12.7
		c1.7-4.3,4.2-9.6,7.7-15.8h-15.9v-1.8h18.6V141.9z"/>
	<path class="st1" d="M802.3,156c-2.1,0-3.8-0.7-5.1-2.1c-1.3-1.4-1.9-3.2-1.9-5.6c0-2.4,0.7-4.3,2-5.7c1.3-1.4,3.1-2.1,5.3-2.1
		c2.1,0,3.8,0.7,5,2.1c1.2,1.4,1.8,3.3,1.8,5.7c0,2.2-0.7,4.1-2,5.5C806.2,155.3,804.4,156,802.3,156z M802.5,142.3
		c-1.6,0-2.9,0.5-3.8,1.6c-0.9,1.1-1.4,2.6-1.4,4.5c0,1.8,0.5,3.3,1.4,4.3c0.9,1,2.1,1.6,3.7,1.6c1.6,0,2.8-0.5,3.7-1.6
		s1.4-2.6,1.4-4.4c0-1.9-0.4-3.3-1.3-4.4C805.3,142.8,804.1,142.3,802.5,142.3z M802.4,172.1h-2.1l18.3-30.9h2.1L802.4,172.1z
		 M818.9,171.9c-2.1,0-3.8-0.7-5.1-2.1s-1.9-3.3-1.9-5.5c0-2.4,0.7-4.3,2-5.7s3.1-2.1,5.3-2.1c2.1,0,3.7,0.7,5,2.1s1.9,3.3,1.9,5.7
		c0,2.2-0.7,4.1-2,5.5S821,171.9,818.9,171.9z M819.1,158.2c-1.6,0-2.8,0.5-3.8,1.6s-1.4,2.6-1.4,4.5c0,1.8,0.4,3.2,1.3,4.3
		s2.1,1.6,3.7,1.6s2.8-0.5,3.7-1.6s1.4-2.5,1.4-4.4c0-2-0.4-3.5-1.3-4.5S820.7,158.2,819.1,158.2z"/>
</g>
<g class="st0">
	<path class="st1" d="M90.4,157.7h-1.6v-2.9H65.2v2.9h-1.6v-30.1h10.7c1.1-2,1.9-3.6,2.3-5l1.6,0.4c-0.6,1.7-1.3,3.2-2.1,4.6h14.3
		V157.7z M88.8,135.8v-6.6H65.2v6.6H88.8z M88.8,144.2v-6.9H65.2v6.9H88.8z M88.8,153.3v-7.6H65.2v7.6H88.8z"/>
	<path class="st1" d="M118.8,125.7h-4.4c-0.5,2.6-0.9,4.3-1.1,4.8h5.1V144h-4.1v11.6c0,1.4-0.7,2-2.1,2h-2.1l-0.6-1.4l2.1,0
		c0.8,0,1.1-0.3,1.1-1V144h-4.2v-13.5h3.2c0.4-1.2,0.7-2.8,1-4.8h-7.5v13.7c0,7.7-0.8,13.8-2.4,18.2l-1.4-0.8
		c1.5-4.9,2.2-10.7,2.2-17.6v-15.1h15V125.7z M110.6,147c-1.3,3.3-2.5,5.8-3.8,7.4l-1.3-0.9c1.4-2.1,2.6-4.5,3.7-7.1L110.6,147z
		 M116.8,136.4v-4.5h-6.6v4.5H116.8z M116.8,142.5v-4.7h-6.6v4.7H116.8z M120.5,151.8l-1.4,0.8c-1.1-2.5-2-4.3-2.7-5.4l1.3-0.7
		C119,148.6,119.9,150.4,120.5,151.8z M136.4,125.6h-7.7c-0.4,2.1-0.9,3.8-1.4,5.1h6.9v19h-8.1l1.1,0.8c-2.4,3.1-5,5.5-7.7,7.2
		l-1.1-1.2c2.4-1.5,4.8-3.7,7.3-6.8h-4v-19h4c0.5-1.4,1-3.1,1.4-5.1h-6.6v-1.4h15.9V125.6z M132.6,136.5v-4.3h-9.3v4.3H132.6z
		 M132.6,142.3v-4.4h-9.3v4.4H132.6z M132.6,148.3v-4.6h-9.3v4.6H132.6z M136.5,156.4l-1.1,1.2c-1.7-1.9-3.7-3.7-5.8-5.4l1-1.2
		C133.2,153.2,135.2,155,136.5,156.4z"/>
	<path class="st1" d="M178.1,155.6l-0.6,1.4H164c-3.7,0-6.7-0.4-9.1-1.1c-2.3-0.8-4.3-1.9-6.1-3.4c-1.2,1.7-2.8,3.4-4.8,5.2l-1.2-1
		c4.5-3.7,7.1-8,7.9-13.1h-6.4v-1.5c1.9-2.4,3.8-5.3,5.8-8.7h-6.6v-1.5h8.5v1.5c-2,3.5-3.9,6.4-5.7,8.7h6.2v1.5
		c-0.7,3.2-1.6,5.7-2.7,7.7c2.5,2.1,5.1,3.3,7.8,3.8c2.7,0.4,8.1,0.7,16.3,0.7L178.1,155.6z M151.2,128.3l-1.1,1.2
		c-1.4-1.8-3.3-3.7-5.6-5.6l1-1.2C147.3,124.2,149.2,126.1,151.2,128.3z M177.6,147.2h-24.5v-1.5h6.8v-3.6h-5.9v-1.5h5.9V138h1.6
		v2.7h7.6V138h1.6v2.7h5.9v1.5h-5.9v3.6h6.8V147.2z M162.2,149.3c-2,1.4-4.4,2.6-7.2,3.7l-0.8-1.3c2.3-0.7,4.6-1.8,7-3.5
		L162.2,149.3z M164.8,135.1c-2.8,0.8-6,1.7-9.6,2.5l-1-1.3c0.6-0.4,0.8-0.9,0.8-1.7V124h8.4v7.1h-6.8v4.5c3.7-0.8,6.3-1.5,7.9-2.1
		L164.8,135.1z M161.9,129.7v-4.2h-5.2v4.2H161.9z M169.2,145.7v-3.6h-7.6v3.6H169.2z M177.4,136.3h-7.6c-1.8,0-2.8-0.9-2.8-2.8
		v-9.5h8.8v7.2h-7.2v2.5c0,0.7,0.4,1.1,1.2,1.1h7.6V136.3z M176.9,151.8l-0.8,1.4c-2.6-1.6-5.2-2.7-7.8-3.5l0.6-1.3
		C171.7,149.3,174.3,150.5,176.9,151.8z M174.3,129.7v-4.2h-5.6v4.2H174.3z"/>
	<path class="st1" d="M196.9,138.1c-1.5,1.1-3.1,2.2-4.7,3.1v14c0,0.6-0.2,1.1-0.7,1.6c-0.4,0.5-1.5,0.7-3,0.7l-1.4,0l-0.5-1.6
		c0.9,0.1,1.8,0.1,2.8,0.1c0.3,0,0.6-0.1,0.8-0.4s0.4-0.5,0.4-0.8v-12.6l-4.8,2.7l-0.4-1.5l5.2-2.9v-8.7h-5v-1.5h5V123h1.6v7.3h3.7
		v1.5h-3.7v7.9c1.1-0.6,2.6-1.6,4.6-3.1L196.9,138.1z M220.4,152.4h-11.2v5.4h-1.6v-5.4h-11.2v-1.4h11.2v-3.7H198v-1.4h5.6
		c-0.5-1.7-1-3.3-1.8-4.8h-4.9v-1.4h10.7v-3.5h-9v-1.4h9v-3.4h-10.1V124h21.7v7.4h-10v3.4h8.8v1.4h-8.8v3.5h10.6v1.4h-5.1
		c-0.4,1.1-1.1,2.7-2.1,4.8h6v1.4h-9.4v3.7h11.2V152.4z M204.3,130v-4.6h-5.1v4.6H204.3z M213,141.1h-9.3c0.6,1.5,1.2,3.1,1.6,4.8
		h5.6C211.6,144.3,212.3,142.7,213,141.1z M211,130v-4.6h-5.1v4.6H211z M217.6,130v-4.6h-5.1v4.6H217.6z"/>
</g>
<g class="st0">
	<path class="st1" d="M149.9,173.2v20.6h4.7v1.8h-4.7v7.9h-2v-7.9h-14.4v-2c2.8-3.2,5.5-6.6,8.2-10.4c2.7-3.8,4.7-7.1,6.1-10H149.9z
		 M147.9,193.7v-17c-1.6,2.7-3.4,5.5-5.5,8.5s-4.3,5.8-6.6,8.5H147.9z"/>
	<path class="st1" d="M166.6,203.4v-27.8c-1.8,1.7-4.3,3.1-7.4,4.2V178c1.6-0.5,3.1-1.2,4.4-2.1c1.3-0.8,2.8-2,4.3-3.4h0.7v30.9
		H166.6z"/>
	<path class="st1" d="M197.5,188.1c-2.1,0-3.8-0.7-5.1-2.1c-1.3-1.4-1.9-3.2-1.9-5.6c0-2.4,0.7-4.3,2-5.7c1.3-1.4,3.1-2.1,5.3-2.1
		c2.1,0,3.8,0.7,5,2.1c1.2,1.4,1.8,3.3,1.8,5.7c0,2.2-0.7,4.1-2,5.5C201.3,187.3,199.6,188.1,197.5,188.1z M197.7,174.3
		c-1.6,0-2.9,0.5-3.8,1.6c-0.9,1.1-1.4,2.6-1.4,4.5c0,1.8,0.5,3.3,1.4,4.3c0.9,1,2.1,1.6,3.7,1.6c1.6,0,2.8-0.5,3.7-1.6
		c0.9-1.1,1.4-2.6,1.4-4.4c0-1.9-0.4-3.3-1.3-4.4C200.5,174.9,199.3,174.3,197.7,174.3z M197.6,204.1h-2.1l18.3-30.9h2.1
		L197.6,204.1z M214.1,203.9c-2.1,0-3.8-0.7-5.1-2.1s-1.9-3.3-1.9-5.5c0-2.4,0.7-4.3,2-5.7c1.3-1.4,3.1-2.1,5.3-2.1
		c2.1,0,3.7,0.7,5,2.1c1.2,1.4,1.9,3.3,1.9,5.7c0,2.2-0.7,4.1-2,5.5C217.9,203.2,216.2,203.9,214.1,203.9z M214.3,190.2
		c-1.6,0-2.8,0.5-3.8,1.6s-1.4,2.6-1.4,4.5c0,1.8,0.4,3.2,1.3,4.3s2.1,1.6,3.7,1.6c1.6,0,2.8-0.5,3.7-1.6c0.9-1.1,1.4-2.5,1.4-4.4
		c0-2-0.4-3.5-1.3-4.5C217.1,190.7,215.8,190.2,214.3,190.2z"/>
</g>
<path class="st2" d="M708.2,212.4l-180.7,44.2L343,281.1l0,0c13.5,101.9,107.1,173.5,209,160s173.5-107.1,160-209
	c-0.9-7-2.2-13.9-3.9-20.7"/>
<path class="st3" d="M527.4,257.1l175.4-62.6l0,0c2.2,6,4,12.2,5.5,18.4l0,0l-180.7,44.2"/>
<path class="st4" d="M519.3,241.5l128.8-134.6c-1.4-1.3-2.8-2.6-4.2-3.9c-76.4-68.7-194.1-62.5-262.8,14
	c-36.4,40.5-53.3,95-46.1,149l0,0l184.6-24.5"/>
<path class="st5" d="M529.9,256.5l172.9-62c-9.7-27.3-25.7-51.9-46.6-71.9L527.4,257.1"/>
<polyline class="st6" points="57.1,163.5 239,163.5 400,198.5 "/>
<polyline class="st6" points="116.2,338.5 285,338.5 432,318.5 "/>
<polyline class="st6" points="920.4,129.5 729.5,129.5 662,163.5 "/>
<polyline class="st6" points="917.5,293.2 767.7,293.2 693,206.5 "/>
</svg>
