<?xml version="1.0" encoding="utf-8"?>
<!-- Generator: Adobe Illustrator 23.0.3, SVG Export Plug-In . SVG Version: 6.00 Build 0)  -->
<svg version="1.1" xmlns="http://www.w3.org/2000/svg" xmlns:xlink="http://www.w3.org/1999/xlink" x="0px" y="0px"
	 viewBox="0 0 1025.2 473.6" style="enable-background:new 0 0 1025.2 473.6;" xml:space="preserve">
<style type="text/css">
	.st0{display:none;}
	.st1{display:inline;fill:#3F3F3F;}
	.st2{enable-background:new    ;}
	.st3{fill:#FFFFFF;}
	.st4{fill:none;stroke:#FFFFFF;stroke-miterlimit:10;}
	.st5{fill:#FAED4D;}
</style>
<g id="圖層_2" class="st0">
	<rect x="-523.8" y="-275.9" class="st1" width="2091.6" height="1238.3"/>
</g>
<g id="圖層_1">
	<g class="st2">
		<path class="st3" d="M28.6,85.1h-2.5v-18H26l-3.8,3.2l-1.5-1.8l5.7-4.6h2.2V85.1z"/>
		<path class="st3" d="M44.3,63.5c5.8,0,7.2,6.1,7.2,11c0,4.8-1.3,11-7.2,11s-7.2-6.2-7.2-11C37.1,69.6,38.5,63.5,44.3,63.5z
			 M44.3,83.3c4.2,0,4.7-5.7,4.7-8.8c0-3.1-0.5-8.8-4.7-8.8c-4.2,0-4.7,5.7-4.7,8.8C39.6,77.6,40.1,83.3,44.3,83.3z"/>
		<path class="st3" d="M70.4,63.5c2.9,0,5.3,2.3,5.3,5.3S73.3,74,70.4,74c-2.9,0-5.3-2.3-5.3-5.2S67.4,63.5,70.4,63.5z M70.4,71.8
			c1.7,0,3.1-1.4,3.1-3.1s-1.4-3.1-3.1-3.1c-1.6,0-3.1,1.4-3.1,3.1S68.7,71.8,70.4,71.8z M82.4,62.9l1.7,1L70.7,86l-1.7-1L82.4,62.9
			z M82.6,74.9c2.9,0,5.2,2.3,5.2,5.3c0,2.9-2.3,5.3-5.2,5.3c-2.9,0-5.3-2.3-5.3-5.3C77.3,77.3,79.7,74.9,82.6,74.9z M82.6,83.3
			c1.6,0,3.1-1.4,3.1-3.1s-1.4-3.1-3.1-3.1c-1.7,0-3.1,1.4-3.1,3.1S80.9,83.3,82.6,83.3z"/>
	</g>
	<g class="st2">
		<path class="st3" d="M144,288.9h12.3v3.6H144V288.9z"/>
		<path class="st3" d="M184.7,271.2h-14.5l-0.2,9.6c1.3-0.7,3.1-0.8,4.5-0.8c6.8,0,11.3,5,11.3,11.7c0,7-5.3,11.8-12.2,11.8
			c-5.4,0-8.6-2.5-10.5-6.5l4.2-1.6c1.2,2.6,3.6,4.5,6.6,4.5c4.3,0,7.6-3.3,7.6-8.2c0-5.2-3.8-8.1-8.8-8.1c-2.4,0-5.1,1-7.2,2.2
			l0.4-18.4h18.6V271.2z"/>
		<path class="st3" d="M201.2,300c0,1.7-1.4,3-3,3c-1.5,0-3-1.3-3-3s1.4-3,3-3C199.9,297,201.2,298.4,201.2,300z"/>
		<path class="st3" d="M217.9,282.1l0.1,0.1c1.3-0.8,3.3-1.1,4.8-1.1c6.2,0,10.7,4.5,10.7,11.1c0,6.9-5.2,11.1-11.9,11.1
			c-6.7,0-11.9-4.2-11.9-11.1c0-4.1,1.5-6.9,3.4-10l9.4-15h4.9L217.9,282.1z M213.9,292.2c0,4.6,3.4,7.5,7.7,7.5
			c4.3,0,7.7-2.9,7.7-7.5c0-4.6-3.4-7.5-7.7-7.5C217.3,284.7,213.9,287.6,213.9,292.2z"/>
		<path class="st3" d="M255.6,288L255.6,288c-1.4,0.7-3.4,1-4.8,1c-6.2,0-10.7-4.5-10.7-11.1c0-6.9,5.2-11.1,11.9-11.1
			c6.7,0,11.9,4.2,11.9,11.1c0,4.1-1.5,6.9-3.4,10l-9.4,15h-4.9L255.6,288z M259.5,277.8c0-4.6-3.4-7.5-7.7-7.5
			c-4.3,0-7.7,2.9-7.7,7.5s3.4,7.5,7.7,7.5C256.1,285.3,259.5,282.4,259.5,277.8z"/>
		<path class="st3" d="M295.3,266.7c4.9,0,8.8,3.9,8.8,8.8c0,4.9-3.9,8.8-8.8,8.8s-8.8-3.9-8.8-8.8
			C286.6,270.6,290.4,266.7,295.3,266.7z M295.3,280.6c2.8,0,5.2-2.3,5.2-5.1c0-2.8-2.4-5.2-5.2-5.2s-5.2,2.3-5.2,5.2
			C290.2,278.3,292.6,280.6,295.3,280.6z M315.4,265.7l2.8,1.6l-22.2,37l-2.8-1.6L315.4,265.7z M315.7,285.8c4.9,0,8.8,3.8,8.8,8.8
			s-3.8,8.8-8.8,8.8s-8.8-3.8-8.8-8.8S310.8,285.8,315.7,285.8z M315.7,299.7c2.8,0,5.2-2.4,5.2-5.2s-2.4-5.2-5.2-5.2
			s-5.2,2.4-5.2,5.2S312.9,299.7,315.7,299.7z"/>
	</g>
	<g class="st2">
		<path class="st3" d="M488.7,90.1c9.8,0,12,10.3,12,18.3c0,8.1-2.3,18.3-12,18.3s-12-10.3-12-18.3
			C476.7,100.3,478.9,90.1,488.7,90.1z M488.7,123.1c7,0,7.8-9.5,7.8-14.7s-0.8-14.7-7.8-14.7s-7.8,9.5-7.8,14.7
			S481.7,123.1,488.7,123.1z"/>
		<path class="st3" d="M515,123.4c0,1.7-1.4,3-3,3c-1.5,0-3-1.3-3-3s1.4-3,3-3C513.7,120.4,515,121.7,515,123.4z"/>
		<path class="st3" d="M531.7,105.7h1.3c3.5,0,8-0.8,8-6.2c0-3.6-2.5-5.9-6-5.9c-3,0-5.3,1.4-6.5,4l-4-1.6c1.7-4,5.8-6,10.3-6
			c5.7,0,10.5,3.1,10.5,9.3c0,3.7-2.5,7-6,8.1v0.1c4.5,0.8,7.3,4.5,7.3,8.9c0,6.8-5.4,10.3-11.7,10.3c-5.4,0-9.6-2.2-11.4-7.5
			l4.3-1.4c1.2,3.8,3.3,5.3,7.2,5.3c4,0,7.2-2.9,7.2-7c0-5.2-4.6-6.9-9-6.9h-1.3V105.7z"/>
		<path class="st3" d="M562,105.4l0.1,0.1c1.3-0.8,3.3-1.1,4.8-1.1c6.2,0,10.7,4.5,10.7,11.1c0,6.9-5.2,11.1-11.9,11.1
			c-6.7,0-11.9-4.2-11.9-11.1c0-4.1,1.5-6.9,3.4-10l9.4-15h4.9L562,105.4z M558,115.6c0,4.6,3.4,7.5,7.7,7.5c4.3,0,7.7-2.9,7.7-7.5
			c0-4.6-3.4-7.5-7.7-7.5C561.4,108.1,558,111,558,115.6z"/>
		<path class="st3" d="M609.1,90.1c4.9,0,8.8,3.9,8.8,8.8c0,4.9-3.9,8.8-8.8,8.8s-8.8-3.9-8.8-8.8C600.4,93.9,604.2,90.1,609.1,90.1
			z M609.1,104c2.8,0,5.2-2.4,5.2-5.1c0-2.8-2.4-5.2-5.2-5.2S604,96,604,98.8C604,101.6,606.4,104,609.1,104z M629.2,89.1l2.8,1.6
			l-22.2,37l-2.8-1.6L629.2,89.1z M629.5,109.2c4.9,0,8.8,3.9,8.8,8.8s-3.8,8.8-8.8,8.8s-8.8-3.8-8.8-8.8S624.6,109.2,629.5,109.2z
			 M629.5,123.1c2.8,0,5.2-2.4,5.2-5.2s-2.4-5.2-5.2-5.2s-5.2,2.4-5.2,5.2S626.7,123.1,629.5,123.1z"/>
	</g>
	<g class="st2">
		<path class="st3" d="M827.8,33.9c5.7,0,10.1,3.7,10.1,9.3c0,3.4-2.2,6.9-5.8,7.8v0.1c4.3,0.9,7,4.6,7,9.1c0,6.5-5,10.4-11.3,10.4
			c-6.3,0-11.3-3.9-11.3-10.4c0-4.5,2.8-8.2,7-9.1V51c-3.6-1-5.8-4.5-5.8-7.8C817.7,37.6,822.1,33.9,827.8,33.9z M827.8,66.9
			c4,0,7.1-2.9,7.1-7.1s-3.1-7.1-7.1-7.1c-4,0-7.1,2.9-7.1,7.1S823.9,66.9,827.8,66.9z M827.8,49.2c3.5,0,5.9-2.5,5.9-5.9
			c0-3.4-2.4-5.9-5.9-5.9c-3.5,0-5.9,2.5-5.9,5.9C821.9,46.7,824.3,49.2,827.8,49.2z"/>
		<path class="st3" d="M854.2,67.2c0,1.7-1.4,3-3,3c-1.5,0-3-1.3-3-3s1.4-3,3-3C852.8,64.2,854.2,65.6,854.2,67.2z"/>
		<path class="st3" d="M874.5,33.9c9.8,0,12,10.3,12,18.3c0,8.1-2.3,18.3-12,18.3c-9.8,0-12-10.3-12-18.3
			C862.5,44.2,864.8,33.9,874.5,33.9z M874.5,66.9c7,0,7.8-9.5,7.8-14.7s-0.8-14.7-7.8-14.7c-7,0-7.8,9.5-7.8,14.7
			S867.5,66.9,874.5,66.9z"/>
		<path class="st3" d="M901.1,49.5h1.3c3.5,0,8-0.8,8-6.2c0-3.6-2.5-5.9-6-5.9c-3,0-5.3,1.4-6.5,4l-4-1.6c1.7-4,5.8-6,10.3-6
			c5.7,0,10.5,3.1,10.5,9.3c0,3.7-2.5,7-6,8.1v0.1c4.5,0.8,7.3,4.5,7.3,8.9c0,6.8-5.4,10.3-11.7,10.3c-5.4,0-9.6-2.2-11.4-7.5
			l4.3-1.4c1.2,3.8,3.3,5.3,7.2,5.3c4,0,7.2-2.9,7.2-7c0-5.2-4.6-6.9-9-6.9h-1.3V49.5z"/>
		<path class="st3" d="M948.3,33.9c4.9,0,8.8,3.9,8.8,8.8c0,4.9-3.9,8.8-8.8,8.8s-8.8-3.9-8.8-8.8C939.5,37.8,943.4,33.9,948.3,33.9
			z M948.3,47.8c2.8,0,5.2-2.4,5.2-5.1c0-2.8-2.4-5.2-5.2-5.2s-5.2,2.4-5.2,5.2C943.1,45.5,945.5,47.8,948.3,47.8z M968.3,32.9
			l2.8,1.6l-22.2,37l-2.8-1.6L968.3,32.9z M968.6,53c4.9,0,8.8,3.9,8.8,8.8s-3.8,8.8-8.8,8.8s-8.8-3.8-8.8-8.8S963.7,53,968.6,53z
			 M968.6,66.9c2.8,0,5.2-2.4,5.2-5.2s-2.4-5.2-5.2-5.2s-5.2,2.4-5.2,5.2S965.9,66.9,968.6,66.9z"/>
	</g>
	<g class="st2">
		<path class="st3" d="M45.8,122h-8.7l-0.1,5.7c0.8-0.4,1.9-0.5,2.7-0.5c4.1,0,6.8,3,6.8,7c0,4.2-3.1,7-7.3,7
			c-3.2,0-5.1-1.5-6.3-3.9l2.5-1c0.7,1.6,2.2,2.7,4,2.7c2.5,0,4.6-2,4.6-4.9c0-3.1-2.3-4.8-5.3-4.8c-1.4,0-3.1,0.6-4.3,1.3l0.2-11
			h11.1V122z"/>
		<path class="st3" d="M66,119.3c2.9,0,5.3,2.3,5.3,5.3s-2.3,5.2-5.3,5.2c-2.9,0-5.3-2.3-5.3-5.2S63.1,119.3,66,119.3z M66,127.6
			c1.7,0,3.1-1.4,3.1-3.1s-1.4-3.1-3.1-3.1c-1.6,0-3.1,1.4-3.1,3.1S64.4,127.6,66,127.6z M78,118.7l1.7,1l-13.3,22.2l-1.7-1
			L78,118.7z M78.2,130.7c2.9,0,5.2,2.3,5.2,5.3c0,2.9-2.3,5.3-5.2,5.3c-2.9,0-5.3-2.3-5.3-5.3C73,133,75.3,130.7,78.2,130.7z
			 M78.2,139.1c1.6,0,3.1-1.4,3.1-3.1s-1.4-3.1-3.1-3.1c-1.7,0-3.1,1.4-3.1,3.1S76.6,139.1,78.2,139.1z"/>
	</g>
	<g class="st2">
		<path class="st3" d="M39.9,175.1c5.8,0,7.2,6.1,7.2,11c0,4.8-1.3,11-7.2,11c-5.9,0-7.2-6.2-7.2-11
			C32.7,181.2,34.1,175.1,39.9,175.1z M39.9,194.9c4.2,0,4.7-5.7,4.7-8.8c0-3.1-0.5-8.8-4.7-8.8c-4.2,0-4.7,5.7-4.7,8.8
			C35.3,189.2,35.7,194.9,39.9,194.9z"/>
		<path class="st3" d="M66,175.1c2.9,0,5.3,2.3,5.3,5.3s-2.3,5.2-5.3,5.2c-2.9,0-5.3-2.3-5.3-5.2S63.1,175.1,66,175.1z M66,183.4
			c1.7,0,3.1-1.4,3.1-3.1s-1.4-3.1-3.1-3.1c-1.6,0-3.1,1.4-3.1,3.1S64.4,183.4,66,183.4z M78,174.5l1.7,1l-13.3,22.2l-1.7-1
			L78,174.5z M78.2,186.5c2.9,0,5.2,2.3,5.2,5.3c0,2.9-2.3,5.3-5.2,5.3c-2.9,0-5.3-2.3-5.3-5.3C73,188.8,75.3,186.5,78.2,186.5z
			 M78.2,194.9c1.6,0,3.1-1.4,3.1-3.1s-1.4-3.1-3.1-3.1c-1.7,0-3.1,1.4-3.1,3.1S76.6,194.9,78.2,194.9z"/>
	</g>
	<g class="st2">
		<path class="st3" d="M24.2,244.2h7.3v2.2h-7.3V244.2z"/>
		<path class="st3" d="M48.6,233.5h-8.7l-0.1,5.7c0.8-0.4,1.9-0.5,2.7-0.5c4.1,0,6.8,3,6.8,7c0,4.2-3.1,7-7.3,7
			c-3.2,0-5.1-1.5-6.3-3.9l2.5-1c0.7,1.6,2.2,2.7,4,2.7c2.5,0,4.6-2,4.6-4.9c0-3.1-2.3-4.8-5.3-4.8c-1.4,0-3.1,0.6-4.3,1.3l0.2-11
			h11.1V233.5z"/>
		<path class="st3" d="M68.8,230.8c2.9,0,5.3,2.3,5.3,5.3c0,2.9-2.3,5.2-5.3,5.2c-2.9,0-5.3-2.3-5.3-5.2
			C63.5,233.2,65.8,230.8,68.8,230.8z M68.8,239.2c1.7,0,3.1-1.4,3.1-3.1c0-1.7-1.4-3.1-3.1-3.1c-1.6,0-3.1,1.4-3.1,3.1
			C65.7,237.8,67.1,239.2,68.8,239.2z M80.8,230.2l1.7,1l-13.3,22.2l-1.7-1L80.8,230.2z M81,242.3c2.9,0,5.2,2.3,5.2,5.3
			c0,2.9-2.3,5.3-5.2,5.3c-2.9,0-5.3-2.3-5.3-5.3C75.7,244.6,78,242.3,81,242.3z M81,250.6c1.6,0,3.1-1.4,3.1-3.1s-1.4-3.1-3.1-3.1
			c-1.7,0-3.1,1.4-3.1,3.1S79.3,250.6,81,250.6z"/>
	</g>
	<g class="st2">
		<path class="st3" d="M10.4,299.9h7.3v2.2h-7.3V299.9z"/>
		<path class="st3" d="M31.4,308.2h-2.5v-18h-0.1l-3.8,3.2l-1.5-1.8l5.7-4.6h2.2V308.2z"/>
		<path class="st3" d="M47.1,286.6c5.8,0,7.2,6.2,7.2,11c0,4.8-1.3,11-7.2,11s-7.2-6.2-7.2-11C39.9,292.8,41.2,286.6,47.1,286.6z
			 M47.1,306.4c4.2,0,4.7-5.7,4.7-8.8c0-3.1-0.5-8.8-4.7-8.8c-4.2,0-4.7,5.7-4.7,8.8C42.4,300.7,42.9,306.4,47.1,306.4z"/>
		<path class="st3" d="M73.1,286.6c2.9,0,5.3,2.3,5.3,5.3c0,2.9-2.3,5.3-5.3,5.3c-2.9,0-5.3-2.3-5.3-5.3
			C67.9,288.9,70.2,286.6,73.1,286.6z M73.1,295c1.7,0,3.1-1.4,3.1-3.1c0-1.7-1.4-3.1-3.1-3.1c-1.6,0-3.1,1.4-3.1,3.1
			C70.1,293.6,71.5,295,73.1,295z M85.2,286l1.7,1l-13.3,22.2l-1.7-1L85.2,286z M85.4,298.1c2.9,0,5.2,2.3,5.2,5.3
			c0,2.9-2.3,5.3-5.2,5.3c-2.9,0-5.3-2.3-5.3-5.3C80.1,300.4,82.4,298.1,85.4,298.1z M85.4,306.4c1.6,0,3.1-1.4,3.1-3.1
			s-1.4-3.1-3.1-3.1c-1.7,0-3.1,1.4-3.1,3.1S83.7,306.4,85.4,306.4z"/>
	</g>
	<line class="st4" x1="108.3" y1="75.3" x2="1004" y2="75.3"/>
	<line class="st4" x1="108.3" y1="132.1" x2="1004" y2="132.1"/>
	<line class="st4" x1="108.3" y1="189" x2="1004" y2="189"/>
	<line class="st4" x1="108.3" y1="245.9" x2="1004" y2="245.9"/>
	<line class="st4" x1="108.3" y1="302.7" x2="1004" y2="302.7"/>
	<rect x="174" y="189.1" class="st5" width="120" height="66.9"/>
	<rect x="493.8" y="158.6" class="st5" width="120" height="30.3"/>
	<rect x="832.5" y="97.3" class="st5" width="120" height="91.7"/>
	<g>
		<g class="st2">
			<path class="st3" d="M201.3,358.9c-2.4,10.2-5.3,17.3-8.8,21.4l-1.9-1.4c3.4-4.2,6.2-11.1,8.4-20.6L201.3,358.9z M212.2,385.5
				c0,0.8-0.2,1.4-0.7,2s-1,0.9-1.6,1.1c-0.6,0.2-1.7,0.3-3.3,0.3c-1.3,0-2.3,0-3.1-0.1l-0.9-2.4c3.9,0.1,6.2,0,6.7-0.2
				c0.5-0.2,0.7-0.7,0.7-1.4v-35.4h2.4V385.5z M230.1,379.1l-2.3,1c-2.1-7.2-4.6-14.2-7.7-20.9l2.3-0.9
				C225.2,364.3,227.7,371.3,230.1,379.1z"/>
			<path class="st3" d="M256.5,359.2h-10.8c-0.1,2.9-0.1,5-0.2,6.4h8.9c0,4.7-0.1,9.2-0.4,13.4c-0.3,4.2-0.7,6.7-1.1,7.5
				c-0.4,0.8-1,1.3-1.8,1.7s-2.5,0.5-5.1,0.4l-0.7-2.4c1.8,0.1,2.9,0.2,3.4,0.2c0.7,0,1.3-0.2,1.9-0.7c0.6-0.4,1-2.6,1.2-6.6
				s0.3-6.7,0.3-8.3c0-1.1,0-2.1-0.1-3h-6.6c-0.6,8.5-2.5,15.5-5.5,21.1l-1.9-1.4c2.2-4.3,3.7-8.5,4.3-12.6c0.7-4.1,1-9.3,1.1-15.8
				h-4.6v-2.3h8.2c-0.6-2.4-1.4-4.7-2.5-6.7l2.1-0.9c1,2.1,2,4.6,2.8,7.6h7.2V359.2z M277.7,364.1l-1.5,2
				c-3.2-2.3-6.6-6.3-10.1-12.1c-2.9,4.9-6.1,8.9-9.6,12.1l-1.5-1.6c5-4.8,8.6-9.9,10.9-15.3l2.2,0.8c-0.1,0.3-0.4,0.9-0.7,1.7
				C270.5,357.2,274,361.3,277.7,364.1z M273.8,386.9l-1.5,1.7c-3.8-3.5-8.4-7-13.9-10.4l1.5-1.9C265.8,380,270.4,383.5,273.8,386.9
				z M272.9,373.5l-1.6,1.8c-2.8-2.9-6.3-5.6-10.5-8.1l1.4-1.7C265.8,367.5,269.4,370.2,272.9,373.5z"/>
		</g>
		<g class="st2">
			<path class="st3" d="M139.6,437h-20.4v-3.3l9.9-10c3.3-3.3,5.3-5.7,6.1-7.2c0.8-1.5,1.1-3.1,1.1-4.7c0-2-0.6-3.6-1.7-4.6
				c-1.1-1.1-2.8-1.6-4.9-1.6c-3,0-5.9,1.3-8.7,3.9v-3.9c2.6-2.1,5.7-3.1,9.2-3.1c2.9,0,5.3,0.8,7,2.4c1.8,1.6,2.6,3.8,2.6,6.6
				c0,2.1-0.6,4.2-1.7,6.3c-1.2,2.1-3.4,4.7-6.6,8l-7.9,7.8v0.1h16V437z"/>
			<path class="st3" d="M147.4,420.7c0-6,1-10.6,2.9-13.6c2-3.1,4.8-4.6,8.5-4.6c7.1,0,10.6,5.8,10.6,17.4c0,5.7-1,10-2.9,13.1
				c-1.9,3.1-4.8,4.6-8.5,4.6c-3.5,0-6.1-1.5-7.9-4.4S147.4,426,147.4,420.7z M151.1,420.5c0,9.3,2.4,14,7.3,14
				c4.8,0,7.2-4.7,7.2-14.2c0-9.8-2.4-14.7-7.1-14.7C153.6,405.5,151.1,410.5,151.1,420.5z"/>
			<path class="st3" d="M175.7,420.7c0-6,1-10.6,2.9-13.6c2-3.1,4.8-4.6,8.5-4.6c7.1,0,10.6,5.8,10.6,17.4c0,5.7-1,10-2.9,13.1
				c-1.9,3.1-4.8,4.6-8.5,4.6c-3.5,0-6.1-1.5-7.9-4.4S175.7,426,175.7,420.7z M179.5,420.5c0,9.3,2.4,14,7.3,14
				c4.8,0,7.2-4.7,7.2-14.2c0-9.8-2.4-14.7-7.1-14.7C182,405.5,179.5,410.5,179.5,420.5z"/>
			<path class="st3" d="M204.1,420.7c0-6,1-10.6,2.9-13.6c2-3.1,4.8-4.6,8.5-4.6c7.1,0,10.6,5.8,10.6,17.4c0,5.7-1,10-2.9,13.1
				c-1.9,3.1-4.8,4.6-8.5,4.6c-3.5,0-6.1-1.5-7.9-4.4S204.1,426,204.1,420.7z M207.8,420.5c0,9.3,2.4,14,7.3,14
				c4.8,0,7.2-4.7,7.2-14.2c0-9.8-2.4-14.7-7.1-14.7C210.3,405.5,207.8,410.5,207.8,420.5z"/>
			<path class="st3" d="M232.4,420.7c0-6,1-10.6,2.9-13.6c2-3.1,4.8-4.6,8.5-4.6c7.1,0,10.6,5.8,10.6,17.4c0,5.7-1,10-2.9,13.1
				c-1.9,3.1-4.8,4.6-8.5,4.6c-3.5,0-6.1-1.5-7.9-4.4S232.4,426,232.4,420.7z M236.1,420.5c0,9.3,2.4,14,7.3,14
				c4.8,0,7.2-4.7,7.2-14.2c0-9.8-2.4-14.7-7.1-14.7C238.6,405.5,236.1,410.5,236.1,420.5z"/>
			<path class="st3" d="M299.7,427.1h-18.1c-0.9,2.7-2.6,5-5.1,6.8c-2.5,1.8-7,3.6-13.5,5.4l-1.4-2.1c4.7-1.1,8.6-2.5,11.6-4.1
				c3-1.6,5-3.6,5.9-6.1h-16.1V425h16.6c0.3-0.8,0.4-2,0.5-3.5l2.3,0.1c-0.1,1.5-0.2,2.7-0.4,3.4h17.6V427.1z M300.9,420.2h-39.2
				v-2.3h18.4v-4.2h-14.6v-2.2h14.6v-4.1h-16.4v-2.2h35.2v2.2h-16.4v4.1h14.6v2.2h-14.6v4.2h18.5V420.2z M276.9,403.2l-2.1,1.4
				c-1.1-1.2-2.6-2.4-4.7-3.6l2.2-1.4C274.2,400.6,275.7,401.8,276.9,403.2z M300.6,437.6l-1.5,1.9c-4.7-3-10.1-5.6-16.3-7.9l1.3-2
				C289.6,431.6,295.1,434.3,300.6,437.6z M291.7,401c-1.3,1.3-2.9,2.5-4.9,3.6l-2.2-1.4c1.8-0.9,3.4-2.1,4.9-3.5L291.7,401z"/>
			<path class="st3" d="M348.3,414.1l-1.4,2.1c-2.9-1.3-5.3-2.6-7.3-3.8v2.2h-10v6.4h16.1v2.3h-16.1v12.6h17v2.3h-35.9v-2.3h16.5
				v-12.6h-15.7v-2.3h15.7v-6.4h-9.6v-2.3c-2.8,1.6-5.2,2.9-7.3,3.8l-1.5-2.1c8.4-3.3,14.9-8,19.4-14.2l2.5,0.9l-0.6,0.8
				C334.8,406.9,340.9,411.2,348.3,414.1z M322.2,433l-2.2,0.9c-0.8-2-2.3-4.5-4.5-7.5l2.1-1C319.6,428,321.1,430.5,322.2,433z
				 M339.2,412.1c-3.7-2.2-7.2-5.2-10.5-8.9c-2.7,3.1-6.2,6.1-10.7,8.9H339.2z M342.1,426.6c-1.8,3.3-3.4,5.8-5.1,7.6l-2.1-1.3
				c1.6-1.6,3.3-4.1,5.1-7.4L342.1,426.6z"/>
		</g>
	</g>
	<g>
		<g class="st2">
			<path class="st3" d="M491.4,386.7H471v-3.3l9.9-10c3.3-3.3,5.3-5.7,6.1-7.2c0.8-1.5,1.1-3.1,1.1-4.7c0-2-0.6-3.6-1.7-4.6
				c-1.1-1.1-2.8-1.6-4.9-1.6c-3,0-5.9,1.3-8.7,3.9v-3.9c2.6-2.1,5.7-3.1,9.2-3.1c2.9,0,5.3,0.8,7,2.4c1.8,1.6,2.6,3.8,2.6,6.6
				c0,2.1-0.6,4.2-1.7,6.3c-1.2,2.1-3.4,4.7-6.6,8l-7.9,7.8v0.1h16V386.7z"/>
			<path class="st3" d="M499.2,370.4c0-6,1-10.6,2.9-13.6c2-3.1,4.8-4.6,8.5-4.6c7.1,0,10.6,5.8,10.6,17.4c0,5.7-1,10-2.9,13.1
				c-1.9,3.1-4.8,4.6-8.5,4.6c-3.5,0-6.1-1.5-7.9-4.4S499.2,375.8,499.2,370.4z M502.9,370.2c0,9.3,2.4,14,7.3,14
				c4.8,0,7.2-4.7,7.2-14.2c0-9.8-2.4-14.7-7.1-14.7C505.4,355.3,502.9,360.3,502.9,370.2z"/>
			<path class="st3" d="M527.5,370.4c0-6,1-10.6,2.9-13.6c2-3.1,4.8-4.6,8.5-4.6c7.1,0,10.6,5.8,10.6,17.4c0,5.7-1,10-2.9,13.1
				c-1.9,3.1-4.8,4.6-8.5,4.6c-3.5,0-6.1-1.5-7.9-4.4S527.5,375.8,527.5,370.4z M531.2,370.2c0,9.3,2.4,14,7.3,14
				c4.8,0,7.2-4.7,7.2-14.2c0-9.8-2.4-14.7-7.1-14.7C533.7,355.3,531.2,360.3,531.2,370.2z"/>
			<path class="st3" d="M555.8,370.4c0-6,1-10.6,2.9-13.6c2-3.1,4.8-4.6,8.5-4.6c7.1,0,10.6,5.8,10.6,17.4c0,5.7-1,10-2.9,13.1
				c-1.9,3.1-4.8,4.6-8.5,4.6c-3.5,0-6.1-1.5-7.9-4.4S555.8,375.8,555.8,370.4z M559.6,370.2c0,9.3,2.4,14,7.3,14
				c4.8,0,7.2-4.7,7.2-14.2c0-9.8-2.3-14.7-7.1-14.7C562,355.3,559.6,360.3,559.6,370.2z"/>
			<path class="st3" d="M584.2,370.4c0-6,1-10.6,2.9-13.6c2-3.1,4.8-4.6,8.5-4.6c7.1,0,10.6,5.8,10.6,17.4c0,5.7-1,10-2.9,13.1
				c-1.9,3.1-4.8,4.6-8.5,4.6c-3.5,0-6.1-1.5-7.9-4.4S584.2,375.8,584.2,370.4z M587.9,370.2c0,9.3,2.4,14,7.3,14
				c4.8,0,7.2-4.7,7.2-14.2c0-9.8-2.4-14.7-7.1-14.7C590.4,355.3,587.9,360.3,587.9,370.2z"/>
			<path class="st3" d="M638.7,369c-0.1,2.3-0.8,4.1-1.9,5.4c-1.2,1.3-2.7,1.9-4.7,1.9c-1.7,0-3.8-0.9-6.3-2.6
				c-1.5-1.1-2.8-1.6-3.8-1.6c-2.2,0-3.4,1.4-3.5,4.2h-3.1c0.1-2.3,0.7-4,1.9-5.3c1.2-1.3,2.7-1.9,4.7-1.9c1.7,0,3.5,0.7,5.6,2.1
				c2.1,1.4,3.7,2.2,4.7,2.2c0.9,0,1.7-0.4,2.3-1.1c0.6-0.8,0.9-1.8,1-3.1H638.7z"/>
		</g>
		<g class="st2">
			<path class="st3" d="M463.6,428.1h-4.4v9.1h-3.6v-9.1h-16.1v-2.4l15.2-22.5h4.5v21.9h4.4V428.1z M455.6,425.1v-15
				c0-1,0-2.2,0.1-3.5h-0.1c-0.1,0.3-0.5,1.2-1.3,2.6l-10.7,15.9H455.6z"/>
			<path class="st3" d="M471.7,433.1c1.9,1.1,3.9,1.6,6,1.6c3.1,0,5.5-1.3,7.3-3.8c1.7-2.5,2.6-6.1,2.6-10.8c0,0-0.1,0-0.1,0
				c-1.5,3-4,4.4-7.6,4.4c-2.9,0-5.3-1-7.2-3s-2.8-4.5-2.8-7.6c0-3.2,1-5.9,3-8.1c2-2.2,4.6-3.2,7.9-3.2c3.4,0,6,1.3,7.8,4
				c1.8,2.7,2.7,6.5,2.7,11.5c0,6.2-1.2,11-3.6,14.5c-2.4,3.5-5.8,5.2-10.2,5.2c-2.3,0-4.2-0.4-5.8-1.1V433.1z M473.6,413.5
				c0,2.4,0.6,4.3,1.9,5.7c1.2,1.4,3,2.1,5.1,2.1c1.9,0,3.5-0.6,4.8-1.9c1.3-1.3,1.9-2.8,1.9-4.6c0-2.5-0.6-4.7-1.9-6.4
				c-1.3-1.7-3-2.6-5.1-2.6c-2,0-3.6,0.7-4.9,2.2C474.2,409.5,473.6,411.3,473.6,413.5z"/>
			<path class="st3" d="M498,421c0-6,1-10.6,2.9-13.6c2-3.1,4.8-4.6,8.5-4.6c7.1,0,10.6,5.8,10.6,17.4c0,5.7-1,10-2.9,13.1
				c-1.9,3.1-4.8,4.6-8.5,4.6c-3.5,0-6.1-1.5-7.9-4.4S498,426.3,498,421z M501.7,420.8c0,9.3,2.4,14,7.3,14c4.8,0,7.2-4.7,7.2-14.2
				c0-9.8-2.4-14.7-7.1-14.7C504.2,405.8,501.7,410.8,501.7,420.8z"/>
			<path class="st3" d="M526.3,421c0-6,1-10.6,2.9-13.6c2-3.1,4.8-4.6,8.5-4.6c7.1,0,10.6,5.8,10.6,17.4c0,5.7-1,10-2.9,13.1
				c-1.9,3.1-4.8,4.6-8.5,4.6c-3.5,0-6.1-1.5-7.9-4.4S526.3,426.3,526.3,421z M530,420.8c0,9.3,2.4,14,7.3,14
				c4.8,0,7.2-4.7,7.2-14.2c0-9.8-2.4-14.7-7.1-14.7C532.5,405.8,530,410.8,530,420.8z"/>
			<path class="st3" d="M554.6,421c0-6,1-10.6,2.9-13.6c2-3.1,4.8-4.6,8.5-4.6c7.1,0,10.6,5.8,10.6,17.4c0,5.7-1,10-2.9,13.1
				c-1.9,3.1-4.8,4.6-8.5,4.6c-3.5,0-6.1-1.5-7.9-4.4S554.6,426.3,554.6,421z M558.4,420.8c0,9.3,2.4,14,7.3,14
				c4.8,0,7.2-4.7,7.2-14.2c0-9.8-2.4-14.7-7.1-14.7C560.8,405.8,558.4,410.8,558.4,420.8z"/>
			<path class="st3" d="M621.9,427.4h-18.1c-0.9,2.7-2.6,5-5.1,6.8c-2.5,1.8-7,3.6-13.5,5.4l-1.4-2.1c4.7-1.1,8.6-2.5,11.6-4.1
				c3-1.6,5-3.6,5.9-6.1h-16.1v-2.1h16.6c0.3-0.8,0.4-2,0.5-3.5l2.3,0.1c-0.1,1.5-0.2,2.7-0.4,3.4h17.6V427.4z M623.1,420.5H584
				v-2.3h18.4V414h-14.6v-2.2h14.6v-4.1H586v-2.2h35.2v2.2h-16.4v4.1h14.6v2.2h-14.6v4.2h18.5V420.5z M599.1,403.4l-2.1,1.4
				c-1.1-1.2-2.6-2.4-4.7-3.6l2.2-1.4C596.4,400.9,598,402.1,599.1,403.4z M622.8,437.9l-1.5,1.9c-4.7-3-10.1-5.6-16.3-7.9l1.3-2
				C611.8,431.9,617.3,434.6,622.8,437.9z M614,401.2c-1.3,1.3-2.9,2.5-4.9,3.6l-2.2-1.4c1.8-0.9,3.4-2.1,4.9-3.5L614,401.2z"/>
			<path class="st3" d="M670.5,414.4l-1.4,2.1c-2.9-1.3-5.3-2.6-7.3-3.8v2.2h-10v6.4h16.1v2.3h-16.1v12.6h17v2.3h-35.9v-2.3h16.5
				v-12.6h-15.7v-2.3h15.7v-6.4h-9.6v-2.3c-2.8,1.6-5.2,2.9-7.3,3.8l-1.5-2.1c8.4-3.3,14.9-8,19.4-14.2l2.5,0.9l-0.6,0.8
				C657,407.2,663.1,411.4,670.5,414.4z M644.5,433.2l-2.2,0.9c-0.8-2-2.3-4.5-4.5-7.5l2.1-1C641.9,428.2,643.4,430.8,644.5,433.2z
				 M661.4,412.4c-3.7-2.2-7.2-5.2-10.5-8.9c-2.7,3.1-6.2,6.1-10.7,8.9H661.4z M664.3,426.8c-1.8,3.3-3.4,5.8-5.1,7.6l-2.1-1.3
				c1.6-1.6,3.3-4.1,5.1-7.4L664.3,426.8z"/>
		</g>
	</g>
	<g>
		<g class="st2">
			<path class="st3" d="M882.4,387.2l-1.6,2c-4.8-3.1-8.7-6.7-11.6-10.7c-2.9-4.1-5-9.1-6.5-15.1c-1.8,10.5-7.9,19.1-18.4,25.7
				l-1.5-2c2.7-1.7,5.2-3.7,7.7-6.1s4.5-4.8,6.1-7.5c1.6-2.6,2.9-6.2,3.7-10.8h-16.7v-2.3h17.1c0.5-3.7,0.7-7.3,0.8-10.9h2.6
				c-0.1,3.9-0.4,7.6-0.9,10.9h18.4v2.3H865c1.6,6.4,3.8,11.5,6.7,15.1C874.5,381.5,878,384.7,882.4,387.2z"/>
			<path class="st3" d="M908.6,359.4h-10.8c-0.1,2.9-0.1,5-0.2,6.4h8.9c0,4.7-0.1,9.2-0.4,13.4c-0.3,4.2-0.7,6.7-1.1,7.5
				c-0.4,0.8-1,1.3-1.8,1.7s-2.5,0.5-5.1,0.4l-0.7-2.4c1.8,0.1,2.9,0.2,3.4,0.2c0.7,0,1.3-0.2,1.9-0.7c0.6-0.4,1-2.6,1.2-6.6
				s0.3-6.7,0.3-8.3c0-1.1,0-2.1-0.1-3h-6.6c-0.6,8.5-2.5,15.5-5.5,21.1l-1.9-1.4c2.2-4.3,3.7-8.5,4.3-12.6c0.7-4.1,1-9.3,1.1-15.8
				h-4.6v-2.3h8.2c-0.6-2.4-1.4-4.7-2.5-6.7l2.1-0.9c1,2.1,2,4.6,2.8,7.6h7.2V359.4z M929.8,364.3l-1.5,2
				c-3.2-2.3-6.6-6.3-10.1-12.1c-2.9,4.9-6.1,8.9-9.6,12.1l-1.5-1.6c5-4.8,8.6-9.9,10.9-15.3l2.2,0.8c-0.1,0.3-0.4,0.9-0.7,1.7
				C922.6,357.5,926.1,361.6,929.8,364.3z M925.9,387.2l-1.5,1.7c-3.8-3.5-8.4-7-13.9-10.4l1.5-1.9
				C917.9,380.3,922.5,383.8,925.9,387.2z M925,373.8l-1.6,1.8c-2.8-2.9-6.3-5.6-10.5-8.1l1.4-1.7C918,367.8,921.5,370.4,925,373.8z
				"/>
		</g>
		<g class="st2">
			<path class="st3" d="M773,432.5c2.3,1.5,4.7,2.3,7.1,2.3s4.4-0.7,5.9-2.1c1.5-1.4,2.3-3.2,2.3-5.5c0-2.3-0.8-4.1-2.3-5.3
				s-3.7-1.9-6.5-1.9c-0.9,0-2.7,0.1-5.3,0.3v-16.9h16.3v3.3h-12.8v10.2c1.3-0.1,2.2-0.1,2.9-0.1c3.6,0,6.4,0.9,8.4,2.7
				c2,1.8,3,4.3,3,7.6c0,3.4-1.1,6.1-3.3,8c-2.2,1.9-5.1,2.9-8.7,2.9c-3.1,0-5.5-0.5-7-1.4V432.5z"/>
			<path class="st3" d="M799.5,421c0-6,1-10.6,2.9-13.6c2-3.1,4.8-4.6,8.5-4.6c7.1,0,10.6,5.8,10.6,17.4c0,5.7-1,10-2.9,13.1
				c-1.9,3.1-4.8,4.6-8.5,4.6c-3.5,0-6.1-1.5-7.9-4.4S799.5,426.3,799.5,421z M803.2,420.8c0,9.3,2.4,14,7.3,14
				c4.8,0,7.2-4.7,7.2-14.2c0-9.8-2.4-14.7-7.1-14.7C805.7,405.8,803.2,410.8,803.2,420.8z"/>
			<path class="st3" d="M827.8,421c0-6,1-10.6,2.9-13.6c2-3.1,4.8-4.6,8.5-4.6c7.1,0,10.6,5.8,10.6,17.4c0,5.7-1,10-2.9,13.1
				c-1.9,3.1-4.8,4.6-8.5,4.6c-3.5,0-6.1-1.5-7.9-4.4S827.8,426.3,827.8,421z M831.6,420.8c0,9.3,2.4,14,7.3,14
				c4.8,0,7.2-4.7,7.2-14.2c0-9.8-2.4-14.7-7.1-14.7C834.1,405.8,831.6,410.8,831.6,420.8z"/>
			<path class="st3" d="M856.2,421c0-6,1-10.6,2.9-13.6c2-3.1,4.8-4.6,8.5-4.6c7.1,0,10.6,5.8,10.6,17.4c0,5.7-1,10-2.9,13.1
				c-1.9,3.1-4.8,4.6-8.5,4.6c-3.5,0-6.1-1.5-7.9-4.4S856.2,426.3,856.2,421z M859.9,420.8c0,9.3,2.4,14,7.3,14
				c4.8,0,7.2-4.7,7.2-14.2c0-9.8-2.4-14.7-7.1-14.7C862.4,405.8,859.9,410.8,859.9,420.8z"/>
			<path class="st3" d="M884.5,421c0-6,1-10.6,2.9-13.6c2-3.1,4.8-4.6,8.5-4.6c7.1,0,10.6,5.8,10.6,17.4c0,5.7-1,10-2.9,13.1
				c-1.9,3.1-4.8,4.6-8.5,4.6c-3.5,0-6.1-1.5-7.9-4.4S884.5,426.3,884.5,421z M888.2,420.8c0,9.3,2.4,14,7.3,14
				c4.8,0,7.2-4.7,7.2-14.2c0-9.8-2.4-14.7-7.1-14.7C890.7,405.8,888.2,410.8,888.2,420.8z"/>
			<path class="st3" d="M951.8,427.4h-18.1c-0.9,2.7-2.6,5-5.1,6.8c-2.5,1.8-7,3.6-13.5,5.4l-1.4-2.1c4.7-1.1,8.6-2.5,11.6-4.1
				c3-1.6,5-3.6,5.9-6.1h-16.1v-2.1h16.6c0.3-0.8,0.4-2,0.5-3.5l2.3,0.1c-0.1,1.5-0.2,2.7-0.4,3.4h17.6V427.4z M953,420.5h-39.2
				v-2.3h18.4V414h-14.6v-2.2h14.6v-4.1h-16.4v-2.2H951v2.2h-16.4v4.1h14.6v2.2h-14.6v4.2H953V420.5z M929,403.4l-2.1,1.4
				c-1.1-1.2-2.6-2.4-4.7-3.6l2.2-1.4C926.3,400.9,927.8,402.1,929,403.4z M952.7,437.9l-1.5,1.9c-4.7-3-10.1-5.6-16.3-7.9l1.3-2
				C941.7,431.9,947.2,434.6,952.7,437.9z M943.8,401.2c-1.3,1.3-2.9,2.5-4.9,3.6l-2.2-1.4c1.8-0.9,3.4-2.1,4.9-3.5L943.8,401.2z"/>
			<path class="st3" d="M1000.4,414.4l-1.4,2.1c-2.9-1.3-5.3-2.6-7.3-3.8v2.2h-10v6.4h16.1v2.3h-16.1v12.6h17v2.3h-35.9v-2.3h16.5
				v-12.6h-15.7v-2.3h15.7v-6.4h-9.6v-2.3c-2.8,1.6-5.2,2.9-7.3,3.8l-1.5-2.1c8.4-3.3,14.9-8,19.4-14.2l2.5,0.9l-0.6,0.8
				C986.9,407.2,993,411.4,1000.4,414.4z M974.3,433.2l-2.2,0.9c-0.8-2-2.3-4.5-4.5-7.5l2.1-1C971.8,428.2,973.3,430.8,974.3,433.2z
				 M991.3,412.4c-3.7-2.2-7.2-5.2-10.5-8.9c-2.7,3.1-6.2,6.1-10.7,8.9H991.3z M994.2,426.8c-1.8,3.3-3.4,5.8-5.1,7.6l-2.1-1.3
				c1.6-1.6,3.3-4.1,5.1-7.4L994.2,426.8z"/>
		</g>
	</g>
</g>
</svg>
